<?xml version="1.0" encoding="UTF-8"?>
<svg version="1.1" xmlns="http://www.w3.org/2000/svg" width="1426" height="1132">
<path d="M0 0 C470.58 0 941.16 0 1426 0 C1426 373.56 1426 747.12 1426 1132 C955.42 1132 484.84 1132 0 1132 C0 758.44 0 384.88 0 0 Z " fill="#000000" transform="translate(0,0)"/>
<path d="M0 0 C0.66 0 1.32 0 2 0 C1.85866501 1.77119803 1.71176792 3.54195287 1.5625 5.3125 C1.44068359 6.79169922 1.44068359 6.79169922 1.31640625 8.30078125 C1 11 1 11 0 14 C-0.66 14 -1.32 14 -2 14 C-2.09667969 14.96164062 -2.19335938 15.92328125 -2.29296875 16.9140625 C-2.97166686 21.6423656 -4.61845237 25.92856889 -6.3125 30.375 C-6.75625977 31.57382812 -6.75625977 31.57382812 -7.20898438 32.796875 C-9.52630294 38.98306451 -12.04427906 45.08855812 -15 51 C-15.66 51 -16.32 51 -17 51 C-17.24878906 51.6909375 -17.49757813 52.381875 -17.75390625 53.09375 C-25.49974443 71.15927855 -42.3653355 90.51051376 -60 99 C-60.66 99 -61.32 99 -62 99 C-62.33 99.99 -62.66 100.98 -63 102 C-65.625 103.28125 -65.625 103.28125 -69 104.5 C-70.17175781 104.92796875 -71.34351563 105.3559375 -72.55078125 105.796875 C-76.12027012 107.04195152 -79.69142061 108.27258691 -83.29296875 109.421875 C-85.08431706 109.98521261 -85.08431706 109.98521261 -87 111 C-89.40838678 111.08639869 -91.78733881 111.11567764 -94.1953125 111.09765625 C-94.90275604 111.0962413 -95.61019958 111.09482635 -96.33908081 111.09336853 C-98.60109669 111.087766 -100.86301398 111.07521318 -103.125 111.0625 C-104.65755065 111.05748532 -106.19010286 111.05292236 -107.72265625 111.04882812 C-111.48180888 111.03779577 -115.24088772 111.02052952 -119 111 C-115.45849581 112.89548432 -112.48953115 114.35243547 -108.4765625 114.73046875 C-107.68378906 114.81103516 -106.89101563 114.89160156 -106.07421875 114.97460938 C-104.86185547 115.07999023 -104.86185547 115.07999023 -103.625 115.1875 C-102.79355469 115.26935547 -101.96210937 115.35121094 -101.10546875 115.43554688 C-99.07131913 115.63428563 -97.03577051 115.81861584 -95 116 C-95 116.66 -95 117.32 -95 118 C-91.99914746 117.71564502 -88.99953094 117.42273122 -86 117.125 C-85.16082031 117.04636719 -84.32164062 116.96773438 -83.45703125 116.88671875 C-74.96568499 116.03100168 -67.79821085 114.26673408 -60.1875 110.375 C-59.49317871 110.02236084 -58.79885742 109.66972168 -58.08349609 109.30639648 C-30.33134008 94.85254979 -10.13741981 67.21883256 4.52734375 40.1953125 C6 38 6 38 9 37 C8.46060782 43.50519962 7.2370645 49.25163335 5.1875 55.4375 C4.78374146 56.68200928 4.78374146 56.68200928 4.37182617 57.95166016 C1.84060063 65.66407069 -0.71921488 73.06920505 -5 80 C-5.69579454 82.19130534 -5.69579454 82.19130534 -6 84 C-6.66 84 -7.32 84 -8 84 C-8.21785156 84.81210937 -8.43570313 85.62421875 -8.66015625 86.4609375 C-10.36215291 90.95659048 -12.76018693 94.65172439 -15.4375 98.625 C-15.97028564 99.41825684 -16.50307129 100.21151367 -17.05200195 101.02880859 C-26.4710148 114.76945338 -38.28172312 126.94897675 -53 135 C-53.66 135 -54.32 135 -55 135 C-55 135.99 -55 136.98 -55 138 C-56.98 138.33 -58.96 138.66 -61 139 C-61 139.66 -61 140.32 -61 141 C-62.93666614 141.46184407 -64.874393 141.91924026 -66.8125 142.375 C-67.89144531 142.63023437 -68.97039062 142.88546875 -70.08203125 143.1484375 C-71.38712565 143.43637947 -72.69322815 143.71976918 -74 144 C-74.81686279 144.17934082 -75.63372559 144.35868164 -76.4753418 144.54345703 C-83.44333006 145.95725175 -90.09193193 146.24333532 -97.1875 146.125 C-98.23486328 146.11597656 -99.28222656 146.10695313 -100.36132812 146.09765625 C-102.90780514 146.07440075 -105.45377031 146.04172569 -108 146 C-93.33878081 152.12201911 -75.84612961 155.21523414 -60.625 149.0625 C-59.83609375 148.70800781 -59.0471875 148.35351562 -58.234375 147.98828125 C-55.21974746 146.6548883 -52.18504125 145.83088033 -49 145 C-49 144.34 -49 143.68 -49 143 C-47.1640625 141.7734375 -47.1640625 141.7734375 -44.625 140.375 C-30.11265201 131.88741359 -18.01845096 119.39699291 -8 106 C-7.17627528 104.93972017 -6.35202263 103.87985036 -5.52734375 102.8203125 C3.01572778 91.67222774 10.71455705 79.57088591 17 67 C17.66 67 18.32 67 19 67 C18.4273421 71.6504655 17.53976549 75.92708658 16.109375 80.38671875 C15.72910156 81.57330078 15.34882812 82.75988281 14.95703125 83.98242188 C14.35955078 85.81643555 14.35955078 85.81643555 13.75 87.6875 C13.36714844 88.89083984 12.98429687 90.09417969 12.58984375 91.33398438 C8.87456438 102.83395446 4.63803914 113.61666538 -1.6875 123.9375 C-2.212229 124.79867432 -2.73695801 125.65984863 -3.27758789 126.54711914 C-14.96834246 145.45722873 -29.06325556 160.60946116 -48.6875 171.3125 C-49.30544434 171.65063721 -49.92338867 171.98877441 -50.56005859 172.3371582 C-54.61831385 174.47802074 -58.56422796 175.86301475 -63 177 C-63.93199219 177.28101563 -64.86398437 177.56203125 -65.82421875 177.8515625 C-72.67979122 179.70340882 -79.18682503 180.29027025 -86.25 180.3125 C-87.07717529 180.31781738 -87.90435059 180.32313477 -88.7565918 180.32861328 C-93.70290024 180.27234353 -98.19492121 179.67537055 -102.98339844 178.42651367 C-105.30870269 177.86205086 -105.30870269 177.86205086 -109 178 C-89.52108057 187.56237863 -70.28613509 190.33997691 -49.50390625 183.38671875 C-46.41193357 182.16302834 -43.81491817 180.74208185 -41 179 C-40.34 179 -39.68 179 -39 179 C-39 178.34 -39 177.68 -39 177 C-37.48041413 175.95547504 -35.90518785 174.99175725 -34.3125 174.0625 C-9.82564152 158.87245394 6.93094131 134.00038382 20.77734375 109.28222656 C21.79849661 107.490187 22.8925236 105.7400158 24 104 C24.66 104 25.32 104 26 104 C25.85879286 105.93784265 25.71187127 107.87526955 25.5625 109.8125 C25.48128906 110.89144531 25.40007812 111.97039062 25.31640625 113.08203125 C25 116 25 116 24 119 C23.34 119 22.68 119 22 119 C21.87044922 119.87398437 21.87044922 119.87398437 21.73828125 120.765625 C20.49635087 128.01211786 17.98442474 134.30793103 15 141 C14.70351563 141.72574219 14.40703125 142.45148438 14.1015625 143.19921875 C7.28325778 159.61944801 -2.84858636 174.11605433 -15 187 C-15.93585938 188.03253906 -15.93585938 188.03253906 -16.890625 189.0859375 C-31.25830613 204.35914475 -52.64088341 214.66073314 -73.5703125 216.1875 C-81.16309944 216.36459124 -88.52085855 215.19144463 -96 214 C-98.33281941 213.66308883 -100.66601951 213.32877136 -103 213 C-86.33071039 222.84241974 -66.94016732 225.52268812 -48 222 C-35.04343152 217.6356822 -23.3311067 208.71454863 -13 200 C-12.36578125 199.48824219 -11.7315625 198.97648438 -11.078125 198.44921875 C4.83168849 185.39050015 16.64797255 165.97125323 26.95703125 148.41015625 C28.88616076 145.19002229 30.84033472 142.0685049 33 139 C33.33 139 33.66 139 34 139 C34.14285714 147.57142857 34.14285714 147.57142857 33 151 C32.34 151 31.68 151 31 151 C30.82210937 152.51013672 30.82210937 152.51013672 30.640625 154.05078125 C29.69799869 160.61126259 27.22099343 166.78453331 25 173 C24.51273438 174.41925781 24.51273438 174.41925781 24.015625 175.8671875 C17.85168244 192.22534275 7.73164444 207.1715741 -4 220 C-4.63035156 220.82757813 -5.26070312 221.65515625 -5.91015625 222.5078125 C-8.43502974 225.51878313 -11.28860822 227.91054358 -14.375 230.3125 C-14.98641846 230.78888916 -15.59783691 231.26527832 -16.2277832 231.75610352 C-25.65544354 238.94109238 -35.66011713 244.42084947 -47 248 C-47.85803223 248.34224609 -48.71606445 248.68449219 -49.60009766 249.03710938 C-53.80554861 250.22814044 -57.55451212 250.25134657 -61.8984375 250.1953125 C-62.73339752 250.1924826 -63.56835754 250.18965271 -64.42861938 250.18673706 C-67.07756291 250.17560301 -69.72615984 250.15051127 -72.375 250.125 C-74.17838051 250.11496143 -75.98176636 250.10583712 -77.78515625 250.09765625 C-82.19023633 250.0756859 -86.59505953 250.04120321 -91 250 C-89.10342133 250.79689925 -87.20615001 251.59215013 -85.30859375 252.38671875 C-84.25212646 252.82975342 -83.19565918 253.27278809 -82.10717773 253.72924805 C-66.19571453 260.23660767 -49.07651578 260.144593 -33.09375 253.8359375 C-23.01221092 249.48639289 -14.30596061 243.11552977 -6 236 C-5.16726563 235.30132813 -4.33453125 234.60265625 -3.4765625 233.8828125 C2.78552707 228.46851352 7.95348458 222.54707222 13 216 C13.71800781 215.08605469 14.43601562 214.17210937 15.17578125 213.23046875 C24.19546188 201.5193026 31.94308303 188.91122686 39.5390625 176.24609375 C40.02117187 175.50488281 40.50328125 174.76367188 41 174 C41.33 174 41.66 174 42 174 C42.42619516 179.75363467 41.6341526 183.51175225 39.33984375 188.76171875 C37.19177199 193.95341404 35.44147865 199.28475114 33.63842773 204.60449219 C27.86852197 221.38668463 19.34675732 237.32520109 8 251 C7.23171875 251.93199219 6.4634375 252.86398437 5.671875 253.82421875 C-1.18548822 261.7544275 -9.85558917 270.53102402 -20 274 C-20 274.66 -20 275.32 -20 276 C-26.39437 278.65960522 -32.82840386 280.98627605 -39.43359375 283.0703125 C-42.1864677 283.95231904 -42.1864677 283.95231904 -45 286 C-47.48780321 286.23213331 -49.86112236 286.35109991 -52.3515625 286.37109375 C-53.44239639 286.38769547 -53.44239639 286.38769547 -54.55526733 286.40463257 C-56.91205683 286.43164637 -59.2680623 286.43788805 -61.625 286.4375 C-62.82116943 286.43959976 -62.82116943 286.43959976 -64.04150391 286.44174194 C-75.75700923 286.42472048 -86.14758299 285.76670543 -97 281 C-98.52947266 280.37158203 -98.52947266 280.37158203 -100.08984375 279.73046875 C-102.78115733 278.56755548 -105.38300053 277.32134616 -108 276 C-108.70898438 275.66226562 -109.41796875 275.32453125 -110.1484375 274.9765625 C-116.78805925 271.76688753 -122.94360507 268.01233402 -129.125 264 C-131.90240792 262.21206753 -134.68028062 260.42486095 -137.45849609 258.63818359 C-139.06927062 257.59992259 -140.67679289 256.55658397 -142.27978516 255.50634766 C-145.83412221 253.21217706 -148.97409109 251.4024527 -153.125 250.375 C-155.98695415 249.60313964 -158.22859423 248.88073345 -160.875 247.5 C-169.67333626 243.2767986 -178.81796522 242.55926335 -188.4375 242.75 C-189.5298999 242.75515625 -190.6222998 242.7603125 -191.74780273 242.765625 C-197.45378966 242.82006089 -202.92165979 243.18095529 -208.5625 244 C-211.89197178 244.30713042 -213.38923623 244.3675113 -216.265625 242.63671875 C-218.44417262 240.56210948 -220.19366778 238.40463214 -222 236 C-222.73476563 235.13503906 -223.46953125 234.27007813 -224.2265625 233.37890625 C-230.32853134 226.12338499 -230.32853134 226.12338499 -231 222 C-209.80873452 212.57634469 -181.64389927 210.54598555 -159 216 C-169.97223701 210.14591013 -181.70638204 208.32549294 -194 208 C-194.7331543 207.96358398 -195.46630859 207.92716797 -196.22167969 207.88964844 C-207.42857776 207.33879306 -217.3568928 208.3087556 -228.19750977 211.30908203 C-229.02951904 211.53837402 -229.86152832 211.76766602 -230.71875 212.00390625 C-231.45029297 212.21861572 -232.18183594 212.4333252 -232.93554688 212.65454102 C-235.3353527 213.05611685 -236.74307334 212.90152473 -239 212 C-243.07099241 206.14794841 -247 198.20834571 -247 191 C-244.98613097 188.4333505 -243.05000407 187.44210807 -239.98046875 186.46484375 C-238.81741211 186.08682617 -238.81741211 186.08682617 -237.63085938 185.70117188 C-236.42139648 185.3231543 -236.42139648 185.3231543 -235.1875 184.9375 C-234.39279297 184.68162109 -233.59808594 184.42574219 -232.77929688 184.16210938 C-231.22398481 183.66168225 -229.66720364 183.16579479 -228.10888672 182.67480469 C-226.34004282 182.1088074 -224.58418123 181.5024558 -222.83203125 180.88671875 C-207.16738389 175.98206365 -187.46039408 176.17671746 -171.6796875 180.34375 C-168.8122809 181.15857915 -168.8122809 181.15857915 -165 181 C-166.79244141 180.40251953 -166.79244141 180.40251953 -168.62109375 179.79296875 C-171.80859375 178.73046875 -174.99609375 177.66796875 -178.18359375 176.60546875 C-178.99135254 176.3422583 -179.79911133 176.07904785 -180.63134766 175.80786133 C-182.12081174 175.2998592 -183.59802755 174.752636 -185.05224609 174.15112305 C-192.39037399 171.24872918 -199.97505313 171.41282912 -207.75 171.4375 C-208.4766687 171.43565704 -209.2033374 171.43381409 -209.95202637 171.43191528 C-222.0491634 171.44239721 -232.74197645 173.14268428 -244.15039062 177.35498047 C-246.39975179 178.13940658 -248.64882682 178.62851464 -251 179 C-254.44419134 162.29157175 -254.44419134 162.29157175 -254 154 C-231.93441772 142.4155693 -209.44191716 141.63628099 -185 142 C-187.37407592 141.35060264 -189.7491639 140.70539947 -192.125 140.0625 C-192.79015625 139.88009766 -193.4553125 139.69769531 -194.140625 139.50976562 C-202.29459443 137.31139151 -209.78692725 136.81745609 -218.1875 136.8125 C-219.7972168 136.79413086 -219.7972168 136.79413086 -221.43945312 136.77539062 C-231.17320147 136.75772502 -240.07048704 138.07095548 -249.22265625 141.4140625 C-251 142 -251 142 -253 142 C-253.21226611 135.24856829 -252.56748842 129.2038093 -251.0625 122.625 C-250.89943359 121.73683594 -250.73636719 120.84867187 -250.56835938 119.93359375 C-249.1349243 113.72047516 -249.1349243 113.72047516 -246.07055664 111.77514648 C-243.71449376 110.94642752 -241.46035705 110.42135487 -239 110 C-237.13794922 109.63841797 -237.13794922 109.63841797 -235.23828125 109.26953125 C-220.51918152 107.55596442 -205.79471573 107.80976132 -191 108 C-192.85143394 107.3463739 -194.70630758 106.70248782 -196.5625 106.0625 C-197.59503906 105.70285156 -198.62757813 105.34320313 -199.69140625 104.97265625 C-205.74195002 103.19392497 -211.63137473 102.85514236 -217.90234375 102.90234375 C-218.98619102 102.90446617 -218.98619102 102.90446617 -220.0919342 102.90663147 C-222.37383365 102.91217775 -224.65563079 102.9247198 -226.9375 102.9375 C-228.49544128 102.94252196 -230.05338412 102.94708364 -231.61132812 102.95117188 C-235.40759081 102.9621295 -239.20377813 102.97935628 -243 103 C-241.85878274 96.46589022 -238.45473049 91.38297854 -235.02929688 85.81445312 C-233.83239452 83.7969375 -233.83239452 83.7969375 -232.640625 80.640625 C-230.90421637 77.03711031 -229.20439964 75.38548854 -226 73 C-222.88793945 72.3737793 -222.88793945 72.3737793 -219.48828125 72.32421875 C-217.6616394 72.29110596 -217.6616394 72.29110596 -215.7980957 72.25732422 C-210.18537368 72.33886148 -204.59771661 72.58447183 -199 73 C-201.20709983 72.34996375 -203.41573892 71.70515255 -205.625 71.0625 C-206.85476563 70.70285156 -208.08453125 70.34320313 -209.3515625 69.97265625 C-212.56810836 69.11514028 -215.70921999 68.48096015 -219 68 C-219 65 -219 65 -217.5378418 63.47460938 C-216.86922119 62.93642578 -216.20060059 62.39824219 -215.51171875 61.84375 C-212.46012436 59.29011453 -209.63270414 56.66923375 -206.89453125 53.78125 C-206.22099609 53.07742188 -205.54746094 52.37359375 -204.85351562 51.6484375 C-203.47164585 50.19383774 -202.09948133 48.72996666 -200.73632812 47.2578125 C-200.06666016 46.56429687 -199.39699219 45.87078125 -198.70703125 45.15625 C-198.1138208 44.52525391 -197.52061035 43.89425781 -196.90942383 43.24414062 C-195 42 -195 42 -192.47485352 42.23486328 C-184.49372152 44.70234554 -176.61324143 47.55591459 -169 51 C-169 51.66 -169 52.32 -169 53 C-168.20464844 53.20367187 -167.40929687 53.40734375 -166.58984375 53.6171875 C-161.77071536 55.47352205 -157.82462301 58.24061506 -153.5625 61.125 C-130.93447354 76.1473164 -111.95754297 81.24484495 -85 83 C-85 82.34 -85 81.68 -85 81 C-84.175 80.81566406 -83.35 80.63132812 -82.5 80.44140625 C-66.52231052 76.42915164 -53.99365543 68.09455538 -42 57 C-41.32582031 56.38382812 -40.65164063 55.76765625 -39.95703125 55.1328125 C-34.80284275 50.20271915 -30.41046988 44.58958028 -26 39 C-24.93458984 37.66001953 -24.93458984 37.66001953 -23.84765625 36.29296875 C-17.96908304 28.69228187 -12.86860456 20.6685987 -7.796875 12.515625 C-7.33087891 11.76732422 -6.86488281 11.01902344 -6.38476562 10.24804688 C-5.44384396 8.72054217 -4.51586459 7.18500497 -3.59960938 5.64257812 C-3.15939453 4.90974609 -2.71917969 4.17691406 -2.265625 3.421875 C-1.87665039 2.7628418 -1.48767578 2.10380859 -1.08691406 1.42480469 C-0.72823242 0.95461914 -0.36955078 0.48443359 0 0 Z " fill="#8DA7E1" transform="translate(876,280)"/>
<path d="M0 0 C3.33900384 1.45384416 5.53205908 3.28282081 8.09863281 5.85139465 C8.90610962 6.65467697 9.71358643 7.45795929 10.54553223 8.2855835 C11.42253784 9.16820862 12.29954346 10.05083374 13.203125 10.96020508 C14.13362671 11.88880844 15.06412842 12.8174118 16.02282715 13.77415466 C18.57282952 16.31931287 21.11654241 18.87067287 23.65904236 21.42332292 C26.3231157 24.09618859 28.99246865 26.763772 31.66113281 29.43205261 C36.14339147 33.91524769 40.62176172 38.40229732 45.09765625 42.8918457 C50.26686955 48.07676987 55.44127588 53.25646389 60.61871719 58.43317109 C66.13605129 63.94982861 71.64956537 69.47029192 77.16197205 74.99187255 C78.74763508 76.57966316 80.3340042 78.16674538 81.92053223 79.75367165 C84.8823239 82.71665845 87.83982719 85.68389016 90.796875 88.65161133 C91.67388062 89.52816376 92.55088623 90.40471619 93.45446777 91.30783081 C94.26194458 92.1195726 95.06942139 92.93131439 95.90136719 93.76765442 C96.60042175 94.46838483 97.29947632 95.16911524 98.01971436 95.8910799 C103.98447054 102.24329188 103.98447054 102.24329188 104.04296875 105.09375 C102.5978023 107.73510291 100.81995998 108.85084844 98.3125 110.5 C96.95705078 111.39912109 96.95705078 111.39912109 95.57421875 112.31640625 C94.29998047 113.14978516 94.29998047 113.14978516 93 114 C91.87493755 114.81241352 90.74992374 115.62489442 89.625 116.4375 C87 118 87 118 83 118 C83 118.66 83 119.32 83 120 C78.74741478 119.70656113 76.85112272 118.21176512 74.06314659 115.06573868 C73.59065294 114.5126289 73.11815929 113.95951912 72.63134766 113.38964844 C71.5670175 112.19163212 70.49994032 110.99605205 69.43048096 109.8026123 C68.87111092 109.17618332 68.31174088 108.54975433 67.73542023 107.90434265 C64.84630601 104.73400768 61.82503053 101.69948244 58.79443359 98.66503906 C58.16474482 98.0332864 57.53505604 97.40153374 56.88628578 96.75063705 C54.89248697 94.75347043 52.89562367 92.75940378 50.8984375 90.765625 C49.48533832 89.35185031 48.07238746 87.93792737 46.65957642 86.52386475 C43.72828148 83.59110975 40.7952212 80.66013551 37.86083984 77.73046875 C34.09581709 73.97120071 30.33538077 70.20738147 26.57620811 66.44226456 C23.67334003 63.53579419 20.76810868 60.63169556 17.86214066 57.72832489 C16.47308557 56.339937 15.08477327 54.95080555 13.69721603 53.56092072 C11.77108762 51.63226505 9.84180509 49.70682224 7.91162109 47.78222656 C7.33921692 47.20779816 6.76681274 46.63336975 6.17706299 46.04153442 C3.35650566 43.16657795 3.35650566 43.16657795 0 41 C-0.2165625 41.54140625 -0.433125 42.0828125 -0.65625 42.640625 C-2.46499997 45.81645344 -4.91723799 48.20728081 -7.5 50.75 C-7.99886719 51.25660156 -8.49773437 51.76320313 -9.01171875 52.28515625 C-12.74658861 56 -12.74658861 56 -15 56 C-15.33 56.99 -15.66 57.98 -16 59 C-17.48771667 60.47142029 -17.48771667 60.47142029 -19.42260742 62.06030273 C-24.61438259 66.46945255 -29.41253536 71.2319842 -34.23828125 76.03515625 C-34.71368032 76.50772795 -35.1890794 76.98029964 -35.67888451 77.4671917 C-38.19705679 79.97047978 -40.71242109 82.47654794 -43.2253418 84.98510742 C-45.27347314 87.02886415 -47.326245 89.06776833 -49.38354492 91.10229492 C-62.77138826 104.34503235 -75.80543887 117.41440247 -85.625 133.625 C-86.04394531 134.29144531 -86.46289062 134.95789063 -86.89453125 135.64453125 C-88.80173244 138.73678949 -90.24314992 141.4522047 -91 145 C-91.66 145 -92.32 145 -93 145 C-93.10570312 145.65613281 -93.21140625 146.31226563 -93.3203125 146.98828125 C-94.01876712 150.08315777 -94.99819458 152.9405781 -96.06982422 155.92089844 C-104.5444145 179.77720413 -106.7728787 207.41589136 -100 232 C-99.68675781 233.15113281 -99.37351562 234.30226563 -99.05078125 235.48828125 C-96.10856831 245.57088448 -92.3082874 255.02500517 -87.0625 264.125 C-86.66482422 264.85203125 -86.26714844 265.5790625 -85.85742188 266.328125 C-77.12675775 281.54553071 -64.30991855 294.16605696 -51.99609375 306.47265625 C-50.4993948 307.9764775 -49.00298632 309.4805879 -47.5068512 310.98497009 C-44.40509986 314.10002404 -41.29764543 317.20924804 -38.1862793 320.31469727 C-34.19465298 324.30035626 -30.22181528 328.30421013 -26.25326443 332.31282902 C-23.18474543 335.40709954 -20.10493215 338.48992872 -17.02168465 341.56951714 C-15.55007004 343.0428262 -14.08244172 344.52012812 -12.61889458 346.00145149 C-10.58756827 348.05477953 -8.54116568 350.0917716 -6.48999023 352.12524414 C-5.8889447 352.73955292 -5.28789917 353.35386169 -4.66864014 353.98678589 C-2.83344139 355.84370315 -2.83344139 355.84370315 0 358 C3.35093792 357.56386017 4.89324094 356.45612065 7.1887207 354.02490234 C7.78646805 353.40110687 8.38421539 352.7773114 9.00007629 352.13461304 C9.63555893 351.45855011 10.27104156 350.78248718 10.92578125 350.0859375 C12.29288286 348.67116253 13.66074512 347.25712225 15.02929688 345.84375 C17.17746505 343.60876976 19.31883909 341.36828606 21.44702148 339.11425781 C23.5054363 336.94099786 25.58816305 334.79360798 27.67578125 332.6484375 C28.30519119 331.96832611 28.93460114 331.28821472 29.58308411 330.5874939 C31.3225924 328.81851464 32.89478828 327.31311126 35 326 C39.14186285 325.97028675 42.33892509 326.84174646 45.97265625 328.77734375 C46.64490234 329.12603516 47.31714844 329.47472656 48.00976562 329.83398438 C48.68716797 330.19814453 49.36457031 330.56230469 50.0625 330.9375 C54.64238922 333.35959846 59.00750444 335.51237652 64 337 C62.36934355 341.13625009 59.36776548 343.89956599 56.26513672 346.96191406 C55.67963043 347.5477124 55.09412415 348.13351074 54.49087524 348.73706055 C52.55851644 350.66802839 50.61917484 352.59181947 48.6796875 354.515625 C47.33689544 355.85468611 45.99454487 357.19419009 44.65261841 358.53411865 C41.12246283 362.05664429 37.58634194 365.57312203 34.0489502 369.08837891 C30.43917149 372.67768551 26.83505985 376.27267256 23.23046875 379.8671875 C16.15918442 386.91703318 9.08158587 393.96050337 2 401 C-1.16339918 399.59974944 -3.2974438 397.95190774 -5.73677063 395.51046753 C-6.82789154 394.42563835 -6.82789154 394.42563835 -7.9410553 393.31889343 C-8.72919113 392.52513809 -9.51732697 391.73138275 -10.3293457 390.91357422 C-11.1672464 390.07757187 -12.00514709 389.24156952 -12.86843872 388.38023376 C-15.16363679 386.08810535 -17.45430414 383.79156501 -19.74288583 381.49283361 C-22.14529705 379.08161901 -24.55299896 376.67569796 -26.96000671 374.26907349 C-31.00597157 370.22217212 -35.04804729 366.1714191 -39.08764648 362.11816406 C-43.7421755 357.4479575 -48.40186162 352.78294923 -53.06460315 348.12094295 C-58.04380013 343.14242483 -63.01916713 338.16009238 -67.9934423 333.1766572 C-69.41847684 331.74950278 -70.84421016 330.32304969 -72.27010536 328.89675522 C-74.94341296 326.22126648 -77.61339398 323.54250163 -80.2824707 320.86279297 C-81.06453384 320.08118301 -81.84659698 319.29957306 -82.65235901 318.49427795 C-94.59005019 306.48739816 -104.30059935 293.50534638 -113 279 C-113.93406402 277.53946353 -114.87102636 276.08077118 -115.8125 274.625 C-117.94336579 271.22559204 -119.50802633 267.72993417 -121 264 C-121.53625 262.865625 -122.0725 261.73125 -122.625 260.5625 C-124.16776781 256.56532885 -124.6272491 253.24936021 -125 249 C-125.66 249 -126.32 249 -127 249 C-127.82588624 245.7324027 -128.63311216 242.46044997 -129.4375 239.1875 C-129.66759766 238.27806641 -129.89769531 237.36863281 -130.13476562 236.43164062 C-138.89036499 200.52099397 -132.44327339 163.30706379 -118 130 C-117.34 130 -116.68 130 -116 130 C-115.94714844 129.19949219 -115.89429688 128.39898437 -115.83984375 127.57421875 C-114.68676777 122.66694189 -112.27883042 119.01728776 -109.5625 114.8125 C-109.02407471 113.96969482 -108.48564941 113.12688965 -107.9309082 112.25854492 C-104.18835663 106.52371446 -100.23851719 101.42584571 -95.44921875 96.51953125 C-93.50811459 94.52270161 -91.69900198 92.50485163 -89.88999939 90.3927002 C-85.8833227 85.80096276 -81.62849153 81.49503881 -77.31079102 77.19726562 C-76.47096176 76.35729034 -75.63113251 75.51731506 -74.76585388 74.65188599 C-72.01423734 71.9009611 -69.25910538 69.15358632 -66.50390625 66.40625 C-64.58527144 64.49004105 -62.66739314 62.57307562 -60.74949646 60.65612793 C-56.23266023 56.14238616 -51.71328351 51.63119715 -47.19296354 47.1209445 C-42.04217555 41.98137654 -36.8942641 36.83893142 -31.74657929 31.69625568 C-21.16755924 21.12765727 -10.58497446 10.56263503 0 0 Z " fill="#37245C" transform="translate(719,232)"/>
<path d="M0 0 C0.33 0 0.66 0 1 0 C1.14285714 8.57142857 1.14285714 8.57142857 0 12 C-0.66 12 -1.32 12 -2 12 C-2.17789063 13.51013672 -2.17789063 13.51013672 -2.359375 15.05078125 C-3.30200131 21.61126259 -5.77900657 27.78453331 -8 34 C-8.32484375 34.94617188 -8.6496875 35.89234375 -8.984375 36.8671875 C-15.14831756 53.22534275 -25.26835556 68.1715741 -37 81 C-37.63035156 81.82757813 -38.26070312 82.65515625 -38.91015625 83.5078125 C-41.43502974 86.51878313 -44.28860822 88.91054358 -47.375 91.3125 C-47.98641846 91.78888916 -48.59783691 92.26527832 -49.2277832 92.75610352 C-58.65544354 99.94109238 -68.66011713 105.42084947 -80 109 C-80.85803223 109.34224609 -81.71606445 109.68449219 -82.60009766 110.03710938 C-86.80554861 111.22814044 -90.55451212 111.25134657 -94.8984375 111.1953125 C-96.15087753 111.19106766 -96.15087753 111.19106766 -97.42861938 111.18673706 C-100.07756291 111.17560301 -102.72615984 111.15051127 -105.375 111.125 C-107.17838051 111.11496143 -108.98176636 111.10583712 -110.78515625 111.09765625 C-115.19023633 111.0756859 -119.59505953 111.04120321 -124 111 C-122.10342133 111.79689925 -120.20615001 112.59215013 -118.30859375 113.38671875 C-117.25212646 113.82975342 -116.19565918 114.27278809 -115.10717773 114.72924805 C-99.19571453 121.23660767 -82.07651578 121.144593 -66.09375 114.8359375 C-56.01221092 110.48639289 -47.30596061 104.11552977 -39 97 C-38.16726563 96.30132813 -37.33453125 95.60265625 -36.4765625 94.8828125 C-30.21447293 89.46851352 -25.04651542 83.54707222 -20 77 C-19.28199219 76.08605469 -18.56398438 75.17210937 -17.82421875 74.23046875 C-8.80453812 62.5193026 -1.05691697 49.91122686 6.5390625 37.24609375 C7.02117187 36.50488281 7.50328125 35.76367188 8 35 C8.33 35 8.66 35 9 35 C9.42619516 40.75363467 8.6341526 44.51175225 6.33984375 49.76171875 C4.19177199 54.95341404 2.44147865 60.28475114 0.63842773 65.60449219 C-5.13147803 82.38668463 -13.65324268 98.32520109 -25 112 C-26.15242188 113.39798828 -26.15242188 113.39798828 -27.328125 114.82421875 C-34.18548822 122.7544275 -42.85558917 131.53102402 -53 135 C-53 135.66 -53 136.32 -53 137 C-59.39437 139.65960522 -65.82840386 141.98627605 -72.43359375 144.0703125 C-75.1864677 144.95231904 -75.1864677 144.95231904 -78 147 C-80.48780321 147.23213331 -82.86112236 147.35109991 -85.3515625 147.37109375 C-86.44239639 147.38769547 -86.44239639 147.38769547 -87.55526733 147.40463257 C-89.91205683 147.43164637 -92.2680623 147.43788805 -94.625 147.4375 C-95.42244629 147.43889984 -96.21989258 147.44029968 -97.04150391 147.44174194 C-108.75700923 147.42472048 -119.14758299 146.76670543 -130 142 C-131.52947266 141.37158203 -131.52947266 141.37158203 -133.08984375 140.73046875 C-135.78115733 139.56755548 -138.38300053 138.32134616 -141 137 C-141.70898438 136.66226563 -142.41796875 136.32453125 -143.1484375 135.9765625 C-149.78805925 132.76688753 -155.94360507 129.01233402 -162.125 125 C-164.90240792 123.21206753 -167.68028062 121.42486095 -170.45849609 119.63818359 C-172.06927062 118.59992259 -173.67679289 117.55658397 -175.27978516 116.50634766 C-178.83412221 114.21217706 -181.97409109 112.4024527 -186.125 111.375 C-188.98695415 110.60313964 -191.22859423 109.88073345 -193.875 108.5 C-202.67333626 104.2767986 -211.81796522 103.55926335 -221.4375 103.75 C-222.5298999 103.75515625 -223.6222998 103.7603125 -224.74780273 103.765625 C-230.45378966 103.82006089 -235.92165979 104.18095529 -241.5625 105 C-244.89197178 105.30713042 -246.38923623 105.3675113 -249.265625 103.63671875 C-251.44417262 101.56210948 -253.19366778 99.40463214 -255 97 C-255.73476563 96.13503906 -256.46953125 95.27007813 -257.2265625 94.37890625 C-263.32853134 87.12338499 -263.32853134 87.12338499 -264 83 C-242.80873452 73.57634469 -214.64389927 71.54598555 -192 77 C-202.97223701 71.14591013 -214.70638204 69.32549294 -227 69 C-227.7331543 68.96358398 -228.46630859 68.92716797 -229.22167969 68.88964844 C-240.42857776 68.33879306 -250.3568928 69.3087556 -261.19750977 72.30908203 C-262.44552368 72.65302002 -262.44552368 72.65302002 -263.71875 73.00390625 C-264.45029297 73.21861572 -265.18183594 73.4333252 -265.93554688 73.65454102 C-268.3353527 74.05611685 -269.74307334 73.90152473 -272 73 C-276.07099241 67.14794841 -280 59.20834571 -280 52 C-277.98613097 49.4333505 -276.05000407 48.44210807 -272.98046875 47.46484375 C-272.20509766 47.21283203 -271.42972656 46.96082031 -270.63085938 46.70117188 C-269.82455078 46.44916016 -269.01824219 46.19714844 -268.1875 45.9375 C-267.39279297 45.68162109 -266.59808594 45.42574219 -265.77929688 45.16210938 C-264.22398481 44.66168225 -262.66720364 44.16579479 -261.10888672 43.67480469 C-259.34004282 43.1088074 -257.58418123 42.5024558 -255.83203125 41.88671875 C-240.26729278 37.01334546 -220.54739416 37.11220358 -204.875 41.34375 C-201.97479484 42.12216383 -201.97479484 42.12216383 -198.8203125 41.97265625 C-194.94569289 42.01022181 -193.09439312 43.78010929 -190 46 C-187.77397385 46.76939681 -187.77397385 46.76939681 -186 47 C-186 47.66 -186 48.32 -186 49 C-185.03320312 49.32871094 -185.03320312 49.32871094 -184.046875 49.6640625 C-179.04223105 51.85840639 -174.55310734 54.91506416 -169.9453125 57.8359375 C-158.87005279 64.7438961 -146.8089403 69.48020847 -134 72 C-134.66 72.66 -135.32 73.32 -136 74 C-119.33071039 83.84241974 -99.94016732 86.52268812 -81 83 C-68.04343152 78.6356822 -56.3311067 69.71454863 -46 61 C-45.04867187 60.23236328 -45.04867187 60.23236328 -44.078125 59.44921875 C-28.16831151 46.39050015 -16.35202745 26.97125323 -6.04296875 9.41015625 C-4.11383924 6.19002229 -2.15966528 3.0685049 0 0 Z " fill="#6F6DAF" transform="translate(909,419)"/>
<path d="M0 0 C0.66 0 1.32 0 2 0 C1.85866501 1.77119803 1.71176792 3.54195287 1.5625 5.3125 C1.44068359 6.79169922 1.44068359 6.79169922 1.31640625 8.30078125 C1 11 1 11 0 14 C-0.66 14 -1.32 14 -2 14 C-2.09667969 14.96164062 -2.19335938 15.92328125 -2.29296875 16.9140625 C-2.97166686 21.6423656 -4.61845237 25.92856889 -6.3125 30.375 C-6.75625977 31.57382812 -6.75625977 31.57382812 -7.20898438 32.796875 C-9.52630294 38.98306451 -12.04427906 45.08855812 -15 51 C-15.66 51 -16.32 51 -17 51 C-17.24878906 51.6909375 -17.49757813 52.381875 -17.75390625 53.09375 C-25.49974443 71.15927855 -42.3653355 90.51051376 -60 99 C-60.66 99 -61.32 99 -62 99 C-62.33 99.99 -62.66 100.98 -63 102 C-65.625 103.28125 -65.625 103.28125 -69 104.5 C-70.17175781 104.92796875 -71.34351563 105.3559375 -72.55078125 105.796875 C-76.12027012 107.04195152 -79.69142061 108.27258691 -83.29296875 109.421875 C-85.08431706 109.98521261 -85.08431706 109.98521261 -87 111 C-89.40838678 111.08639869 -91.78733881 111.11567764 -94.1953125 111.09765625 C-94.90275604 111.0962413 -95.61019958 111.09482635 -96.33908081 111.09336853 C-98.60109669 111.087766 -100.86301398 111.07521318 -103.125 111.0625 C-104.65755065 111.05748532 -106.19010286 111.05292236 -107.72265625 111.04882812 C-111.48180888 111.03779577 -115.24088772 111.02052952 -119 111 C-115.45849581 112.89548432 -112.48953115 114.35243547 -108.4765625 114.73046875 C-107.68378906 114.81103516 -106.89101563 114.89160156 -106.07421875 114.97460938 C-104.86185547 115.07999023 -104.86185547 115.07999023 -103.625 115.1875 C-102.79355469 115.26935547 -101.96210937 115.35121094 -101.10546875 115.43554688 C-99.07131913 115.63428563 -97.03577051 115.81861584 -95 116 C-95 116.66 -95 117.32 -95 118 C-91.99914746 117.71564502 -88.99953094 117.42273122 -86 117.125 C-85.16082031 117.04636719 -84.32164062 116.96773438 -83.45703125 116.88671875 C-74.96568499 116.03100168 -67.79821085 114.26673408 -60.1875 110.375 C-59.49317871 110.02236084 -58.79885742 109.66972168 -58.08349609 109.30639648 C-30.33134008 94.85254979 -10.13741981 67.21883256 4.52734375 40.1953125 C6 38 6 38 9 37 C8.46060782 43.50519962 7.2370645 49.25163335 5.1875 55.4375 C4.78374146 56.68200928 4.78374146 56.68200928 4.37182617 57.95166016 C1.84060063 65.66407069 -0.71921488 73.06920505 -5 80 C-5.69579454 82.19130534 -5.69579454 82.19130534 -6 84 C-6.66 84 -7.32 84 -8 84 C-8.21785156 84.81210937 -8.43570313 85.62421875 -8.66015625 86.4609375 C-10.36215291 90.95659048 -12.76018693 94.65172439 -15.4375 98.625 C-15.97028564 99.41825684 -16.50307129 100.21151367 -17.05200195 101.02880859 C-26.4710148 114.76945338 -38.28172312 126.94897675 -53 135 C-53.66 135 -54.32 135 -55 135 C-55 135.99 -55 136.98 -55 138 C-56.98 138.33 -58.96 138.66 -61 139 C-61 139.66 -61 140.32 -61 141 C-62.04800781 141.13277344 -63.09601563 141.26554688 -64.17578125 141.40234375 C-65.55470778 141.58057235 -66.93361293 141.75896641 -68.3125 141.9375 C-69.00279297 142.02451172 -69.69308594 142.11152344 -70.40429688 142.20117188 C-73.40142288 142.59210135 -76.12450119 143.0415004 -79 144 C-81.50182197 144.0965181 -83.97491789 144.14001359 -86.4765625 144.1328125 C-87.56534195 144.13424759 -87.56534195 144.13424759 -88.67611694 144.13571167 C-90.20758145 144.13639134 -91.73904886 144.13455189 -93.27050781 144.13037109 C-95.62311201 144.12500431 -97.97552662 144.13033116 -100.328125 144.13671875 C-101.81510459 144.13605823 -103.30208406 144.13477762 -104.7890625 144.1328125 C-105.49632477 144.13483673 -106.20358704 144.13686096 -106.93228149 144.13894653 C-111.88503757 144.11496243 -111.88503757 144.11496243 -113 143 C-115.2277397 142.77692458 -117.45731364 142.57211822 -119.6875 142.375 C-126.94844594 141.57668068 -132.42288422 139.25857691 -138.78125 135.75390625 C-142.13068128 133.92879139 -145.47739417 132.45440923 -149 131 C-149 130.34 -149 129.68 -149 129 C-150.50240234 128.64421875 -150.50240234 128.64421875 -152.03515625 128.28125 C-156.31980294 127.05490617 -159.74514282 124.94594243 -163.4375 122.5 C-164.39172852 121.89478516 -164.39172852 121.89478516 -165.36523438 121.27734375 C-166.95103233 120.24512725 -168.48149278 119.12887638 -170 118 C-170 117.34 -170 116.68 -170 116 C-170.67546875 115.81824219 -171.3509375 115.63648438 -172.046875 115.44921875 C-172.93890625 115.19785156 -173.8309375 114.94648438 -174.75 114.6875 C-175.63171875 114.44386719 -176.5134375 114.20023437 -177.421875 113.94921875 C-180 113 -180 113 -181.74609375 111.58984375 C-185.26442471 109.10810943 -189.22164869 108.12263128 -193.3125 106.875 C-194.14201172 106.61074219 -194.97152344 106.34648437 -195.82617188 106.07421875 C-203.19272931 103.78343451 -210.17474226 102.84417834 -217.90234375 102.90234375 C-218.98619102 102.90446617 -218.98619102 102.90446617 -220.0919342 102.90663147 C-222.37383365 102.91217775 -224.65563079 102.9247198 -226.9375 102.9375 C-228.49544128 102.94252196 -230.05338412 102.94708364 -231.61132812 102.95117188 C-235.40759081 102.9621295 -239.20377813 102.97935628 -243 103 C-241.85878274 96.46589022 -238.45473049 91.38297854 -235.02929688 85.81445312 C-233.83239452 83.7969375 -233.83239452 83.7969375 -232.640625 80.640625 C-230.90421637 77.03711031 -229.20439964 75.38548854 -226 73 C-222.88793945 72.3737793 -222.88793945 72.3737793 -219.48828125 72.32421875 C-217.6616394 72.29110596 -217.6616394 72.29110596 -215.7980957 72.25732422 C-210.18537368 72.33886148 -204.59771661 72.58447183 -199 73 C-201.20709983 72.34996375 -203.41573892 71.70515255 -205.625 71.0625 C-206.85476563 70.70285156 -208.08453125 70.34320313 -209.3515625 69.97265625 C-212.56810836 69.11514028 -215.70921999 68.48096015 -219 68 C-219 65 -219 65 -217.5378418 63.47460938 C-216.53491089 62.66733398 -216.53491089 62.66733398 -215.51171875 61.84375 C-212.46012436 59.29011453 -209.63270414 56.66923375 -206.89453125 53.78125 C-206.22099609 53.07742188 -205.54746094 52.37359375 -204.85351562 51.6484375 C-203.47164585 50.19383774 -202.09948133 48.72996666 -200.73632812 47.2578125 C-200.06666016 46.56429687 -199.39699219 45.87078125 -198.70703125 45.15625 C-198.1138208 44.52525391 -197.52061035 43.89425781 -196.90942383 43.24414062 C-195 42 -195 42 -192.47485352 42.23486328 C-184.49372152 44.70234554 -176.61324143 47.55591459 -169 51 C-169 51.66 -169 52.32 -169 53 C-168.20464844 53.20367187 -167.40929687 53.40734375 -166.58984375 53.6171875 C-161.77071536 55.47352205 -157.82462301 58.24061506 -153.5625 61.125 C-130.93447354 76.1473164 -111.95754297 81.24484495 -85 83 C-85 82.34 -85 81.68 -85 81 C-84.175 80.81566406 -83.35 80.63132812 -82.5 80.44140625 C-66.52231052 76.42915164 -53.99365543 68.09455538 -42 57 C-41.32582031 56.38382812 -40.65164063 55.76765625 -39.95703125 55.1328125 C-34.80284275 50.20271915 -30.41046988 44.58958028 -26 39 C-24.93458984 37.66001953 -24.93458984 37.66001953 -23.84765625 36.29296875 C-17.96908304 28.69228187 -12.86860456 20.6685987 -7.796875 12.515625 C-7.33087891 11.76732422 -6.86488281 11.01902344 -6.38476562 10.24804688 C-5.44384396 8.72054217 -4.51586459 7.18500497 -3.59960938 5.64257812 C-3.15939453 4.90974609 -2.71917969 4.17691406 -2.265625 3.421875 C-1.87665039 2.7628418 -1.48767578 2.10380859 -1.08691406 1.42480469 C-0.72823242 0.95461914 -0.36955078 0.48443359 0 0 Z " fill="#D0DCF2" transform="translate(876,280)"/>
<path d="M0 0 C28.71 0 57.42 0 87 0 C87 3.96 87 7.92 87 12 C63.24 12 39.48 12 15 12 C15 16.95 15 21.9 15 27 C37.77 27 60.54 27 84 27 C84 30.63 84 34.26 84 38 C61.23 38 38.46 38 15 38 C15 43.28 15 48.56 15 54 C39.09 54 63.18 54 88 54 C88 57.96 88 61.92 88 66 C75.79 66 63.58 66 51 66 C51 73.26 51 80.52 51 88 C67.5 88 84 88 101 88 C101 92.29 101 96.58 101 101 C63.05 101 25.1 101 -14 101 C-14 96.71 -14 92.42 -14 88 C2.5 88 19 88 36 88 C36 80.74 36 73.48 36 66 C24.12 66 12.24 66 0 66 C0 44.22 0 22.44 0 0 Z " fill="#B86DD9" transform="translate(419,705)"/>
<path d="M0 0 C5.28 0 10.56 0 16 0 C16 8.91 16 17.82 16 27 C21.94 27 27.88 27 34 27 C34 31.29 34 35.58 34 40 C28.06 40 22.12 40 16 40 C16 60.79 16 81.58 16 103 C-5.78 103 -27.56 103 -50 103 C-50 105.97 -50 108.94 -50 112 C-26.57 112 -3.14 112 21 112 C21 116.29 21 120.58 21 125 C-7.71 125 -36.42 125 -66 125 C-66 113.45 -66 101.9 -66 90 C-44.22 90 -22.44 90 0 90 C0 87.69 0 85.38 0 83 C-21.78 83 -43.56 83 -66 83 C-66 78.38 -66 73.76 -66 69 C-44.22 69 -22.44 69 0 69 C0 46.23 0 23.46 0 0 Z " fill="#66408B" transform="translate(637,695)"/>
<path d="M0 0 C1.25876953 -0.020625 2.51753906 -0.04125 3.81445312 -0.0625 C13.59543286 -0.10331786 22.8279714 0.71862029 30.5625 7.25 C36.00187865 13.46804489 39.13186716 17.70949259 38.5625 26.25 C36.21381139 33.41968102 32.60145891 37.31407586 26.0625 40.875 C9.03775524 48.73066825 -12.42050246 48.77607226 -30.24609375 43.44140625 C-37.04187719 40.90442467 -42.17169373 37.66995875 -46.3671875 31.62890625 C-48.47612373 26.94152609 -48.24160417 22.24391009 -47.4375 17.25 C-44.58143835 10.82386128 -38.92109763 6.74297041 -32.56640625 4.01953125 C-21.77318697 0.21096852 -11.37061151 0.04643435 0 0 Z " fill="#B66CD7" transform="translate(820.4375,772.75)"/>
<path d="M0 0 C30.69 0 61.38 0 93 0 C93 3.3 93 6.6 93 10 C79.8 10 66.6 10 53 10 C54.39851185 17.92496279 54.39851185 17.92496279 57 25 C57.433125 25.99 57.86625 26.98 58.3125 28 C63.18757847 36.66680616 72.83722069 42.60637803 82 46 C82.97066406 46.38091797 82.97066406 46.38091797 83.9609375 46.76953125 C88.25081179 48.4378157 92.55801576 49.7969626 97 51 C96.48792856 54.75519057 95.7824918 57.66688525 94 61 C87.9036882 60.59075685 82.60521946 59.51200521 77 57 C76.07058594 56.59910156 75.14117188 56.19820312 74.18359375 55.78515625 C64.51822225 51.32896326 57.60255821 45.26683942 51 37 C49.36643049 35.62631655 47.7074998 34.28062485 46 33 C45.67 33.99 45.34 34.98 45 36 C44.34 36 43.68 36 43 36 C42.95875 36.7115625 42.9175 37.423125 42.875 38.15625 C41.66261428 42.09650359 39.10950517 44.00448739 36 46.5 C35.41057617 46.98267334 34.82115234 47.46534668 34.21386719 47.96264648 C27.59857537 53.27741158 21.49387846 57.06068622 13.0625 58.59765625 C10.7773185 58.99130264 10.7773185 58.99130264 7.8125 60.125 C4.73931081 61.0811033 2.19937309 61.1523511 -1 61 C-3.03435531 57.27034861 -4 55.33094958 -4 51 C-2.9378125 50.68546875 -1.875625 50.3709375 -0.78125 50.046875 C13.41811849 45.92418861 13.41811849 45.92418861 25 37 C26.32999242 35.91256768 27.6636214 34.82957451 29 33.75 C36.75457704 26.96108727 38.11539454 20.36533001 40 10 C26.8 10 13.6 10 0 10 C0 6.7 0 3.4 0 0 Z " fill="#B46BD6" transform="translate(919,707)"/>
<path d="M0 0 C19.47 0 38.94 0 59 0 C59 3.96 59 7.92 59 12 C44.15 12 29.3 12 14 12 C14 15.3 14 18.6 14 22 C28.19 22 42.38 22 57 22 C57 25.96 57 29.92 57 34 C42.81 34 28.62 34 14 34 C14 37.63 14 41.26 14 45 C31.71609784 44.47323027 49.34023681 43.51256169 67 42 C67.96070434 44.88211302 68.10581883 46.69850044 68.0625 49.6875 C68.05347656 50.49574219 68.04445313 51.30398438 68.03515625 52.13671875 C68.02355469 52.75160156 68.01195312 53.36648438 68 54 C55.56572471 57.44673192 41.47927053 56.15406159 28.71191406 56.13037109 C25.21675405 56.12494842 21.72171891 56.13037457 18.2265625 56.13671875 C16.01041638 56.13605905 13.79427034 56.13478014 11.578125 56.1328125 C10.53037903 56.13483673 9.48263306 56.13686096 8.40313721 56.13894653 C7.44413513 56.13579437 6.48513306 56.13264221 5.49707031 56.12939453 C4.22685028 56.12820114 4.22685028 56.12820114 2.93096924 56.12698364 C1 56 1 56 0 55 C-0.0935919 53.28134591 -0.11744611 51.55884256 -0.11352539 49.83764648 C-0.11340454 48.72111694 -0.11328369 47.6045874 -0.11315918 46.45422363 C-0.10804321 45.27179077 -0.10292725 44.08935791 -0.09765625 42.87109375 C-0.09664917 41.79089966 -0.09564209 40.71070557 -0.09460449 39.59777832 C-0.08935374 35.54434149 -0.07539263 31.49091973 -0.0625 27.4375 C-0.041875 18.383125 -0.02125 9.32875 0 0 Z " fill="#BC70DD" transform="translate(560,701)"/>
<path d="M0 0 C25.08 0 50.16 0 76 0 C76 9.24 76 18.48 76 28 C54.55 28 33.1 28 11 28 C11 32.62 11 37.24 11 42 C34.1 42 57.2 42 81 42 C81 44.97 81 47.94 81 51 C53.94 51 26.88 51 -1 51 C-1 40.77 -1 30.54 -1 20 C21.11 20 43.22 20 66 20 C66 16.04 66 12.08 66 8 C44.22 8 22.44 8 0 8 C0 5.36 0 2.72 0 0 Z " fill="#BB6FDC" transform="translate(574,767)"/>
<path d="M0 0 C0 3.85108433 -1.55200838 4.83144774 -4.0234375 7.58984375 C-6.5693069 10.69419438 -8.78092406 13.96978355 -11 17.3125 C-11.43747559 17.96758545 -11.87495117 18.6226709 -12.32568359 19.29760742 C-14.74912037 22.96828083 -16.92872517 26.67885969 -19 30.5625 C-22.48631857 36.48136288 -27.85005089 39.78422113 -34.38671875 41.69921875 C-35.10472656 41.86035156 -35.82273437 42.02148438 -36.5625 42.1875 C-37.696875 42.455625 -38.83125 42.72375 -40 43 C-40.33 43.99 -40.66 44.98 -41 46 C-42.57805433 46.66628961 -44.15912394 47.32587004 -45.75 47.9609375 C-61.29500101 55.13970533 -75.55245375 68.43823419 -88 80 C-89.32971825 81.1500266 -90.66295928 82.29599488 -92 83.4375 C-96.91224949 87.70552005 -101.44322882 92.35919001 -106 97 C-106.78417022 94.72835102 -107.17142001 93.4726385 -106.33837891 91.17578125 C-105.78802979 90.25345703 -105.78802979 90.25345703 -105.2265625 89.3125 C-104.81849365 88.61979004 -104.4104248 87.92708008 -103.98999023 87.21337891 C-103.53954346 86.48296387 -103.08909668 85.75254883 -102.625 85 C-102.16746338 84.24251465 -101.70992676 83.4850293 -101.23852539 82.70458984 C-97.21504828 76.14395377 -92.81086545 70.01145311 -88 64 C-87.28199219 63.08992188 -86.56398438 62.17984375 -85.82421875 61.2421875 C-80.18265215 54.20776521 -74.17457686 47.56388302 -68 41 C-67.30648437 40.24074219 -66.61296875 39.48148437 -65.8984375 38.69921875 C-54.78565081 26.96428763 -41.05866664 17.8179075 -27 10 C-25.81470703 9.34064453 -25.81470703 9.34064453 -24.60546875 8.66796875 C-20.56479289 6.54003886 -16.43042715 5.04167737 -12.078125 3.7109375 C-9.96167791 3.04090272 -9.96167791 3.04090272 -7.9375 1.953125 C-5.36070581 0.6855085 -2.82836095 0.38568558 0 0 Z " fill="#CBD6EC" transform="translate(618,322)"/>
<path d="M0 0 C4.29 0 8.58 0 13 0 C13 9.57 13 19.14 13 29 C29.5 29 46 29 63 29 C63 32.96 63 36.92 63 41 C25.38 41 -12.24 41 -51 41 C-51 37.04 -51 33.08 -51 29 C-34.17 29 -17.34 29 0 29 C0 19.43 0 9.86 0 0 Z " fill="#BA6EDB" transform="translate(959,764)"/>
<path d="M0 0 C3.96 0 7.92 0 12 0 C12 7.59 12 15.18 12 23 C29.82 23 47.64 23 66 23 C66 26.3 66 29.6 66 33 C29.37 33 -7.26 33 -45 33 C-45 29.7 -45 26.4 -45 23 C-30.15 23 -15.3 23 0 23 C0 15.41 0 7.82 0 0 Z " fill="#B66CD8" transform="translate(806,730)"/>
<path d="M0 0 C1.23621094 -0.01160156 2.47242188 -0.02320313 3.74609375 -0.03515625 C10.86288574 -0.01246722 17.71444248 0.28789762 24.25 3.375 C27.06457811 6.3906194 28.0247012 8.39187798 28.9375 12.375 C27.86639655 17.04890596 25.19516105 18.88286548 21.25 21.375 C13.50121278 24.76986943 5.76548463 24.77038762 -2.5625 24.625 C-3.76326172 24.61984375 -4.96402344 24.6146875 -6.20117188 24.609375 C-11.19230522 24.56488579 -15.86906332 24.49571202 -20.75 23.375 C-20.75 22.715 -20.75 22.055 -20.75 21.375 C-21.636875 21.271875 -22.52375 21.16875 -23.4375 21.0625 C-26.83907749 20.35651222 -28.94034065 19.38189954 -31.75 17.375 C-33.30024464 14.27451072 -33.03992015 11.79605782 -32.75 8.375 C-30.73333169 5.12322847 -29.41321514 3.63068544 -25.81542969 2.24365234 C-17.13909353 0.56206604 -8.83164223 -0.08393324 0 0 Z " fill="#060309" transform="translate(817.75,784.625)"/>
<path d="M0 0 C27.72 0 55.44 0 84 0 C84 18.8625 84 18.8625 83.625 26 C83.5940625 26.76699219 83.563125 27.53398438 83.53125 28.32421875 C83.27016775 33.4501336 82.38227327 38.0552826 81 43 C79.54176788 43.0270043 78.08339325 43.04639787 76.625 43.0625 C75.40683594 43.07990234 75.40683594 43.07990234 74.1640625 43.09765625 C72 43 72 43 70 42 C69.90710847 36.70518291 70.23458697 32.35789122 71 27 C71.33 21.39 71.66 15.78 72 10 C48.24 10 24.48 10 0 10 C0 6.7 0 3.4 0 0 Z " fill="#B56CD7" transform="translate(774,702)"/>
<path d="M0 0 C28.71 0 57.42 0 87 0 C87 3.96 87 7.92 87 12 C63.24 12 39.48 12 15 12 C15 16.95 15 21.9 15 27 C37.77 27 60.54 27 84 27 C84 30.63 84 34.26 84 38 C61.23 38 38.46 38 15 38 C15 43.28 15 48.56 15 54 C39.09 54 63.18 54 88 54 C88 57.96 88 61.92 88 66 C75.79 66 63.58 66 51 66 C51 73.26 51 80.52 51 88 C67.5 88 84 88 101 88 C101 92.29 101 96.58 101 101 C63.05 101 25.1 101 -14 101 C-14 96.71 -14 92.42 -14 88 C2.5 88 19 88 36 88 C36 80.74 36 73.48 36 66 C24.12 66 12.24 66 0 66 C0 44.22 0 22.44 0 0 Z M2 1 C2 22.12 2 43.24 2 65 C13.55 65 25.1 65 37 65 C37 72.92 37 80.84 37 89 C20.5 89 4 89 -13 89 C-13 92.3 -13 95.6 -13 99 C24.29 99 61.58 99 100 99 C100 95.7 100 92.4 100 89 C83.5 89 67 89 50 89 C50 81.08 50 73.16 50 65 C62.21 65 74.42 65 87 65 C87 61.7 87 58.4 87 55 C62.58 55 38.16 55 13 55 C13.33 49.06 13.66 43.12 14 37 C36.44 36.67 58.88 36.34 82 36 C82 33.36 82 30.72 82 28 C59.56 28 37.12 28 14 28 C14 22.06 14 16.12 14 10 C37.43 10 60.86 10 85 10 C85 7.03 85 4.06 85 1 C57.61 1 30.22 1 2 1 Z " fill="#5A397D" transform="translate(419,705)"/>
<path d="M0 0 C0.46036052 5.40923611 -0.54943218 8.55439015 -2.921875 13.3828125 C-4.64475421 17.5651642 -5.3652238 21.94132525 -6.19140625 26.375 C-6.45824219 27.24125 -6.72507812 28.1075 -7 29 C-7.99 29.33 -8.98 29.66 -10 30 C-10.495 31.485 -10.495 31.485 -11 33 C-12.68486093 33.74283277 -14.37411835 34.47791233 -16.08789062 35.15136719 C-19.16484531 36.51698191 -21.62055916 38.54390989 -24.25 40.625 C-25.09123413 41.28749756 -25.09123413 41.28749756 -25.94946289 41.96337891 C-27.64027623 43.3000564 -29.3213031 44.6481514 -31 46 C-31.92167969 46.73734375 -32.84335937 47.4746875 -33.79296875 48.234375 C-36.54947616 50.46563949 -39.27921623 52.7253068 -42 55 C-42.82999512 55.69246826 -42.82999512 55.69246826 -43.67675781 56.39892578 C-56.99338871 67.11684469 -56.99338871 67.11684469 -68 80 C-68.66 80 -69.32 80 -70 80 C-65.22204219 51.68881714 -30.92537983 21.23327486 -9 5 C-8.37174316 4.52933105 -7.74348633 4.05866211 -7.09619141 3.57373047 C-2.23958333 0 -2.23958333 0 0 0 Z " fill="#C7D3E8" transform="translate(588,375)"/>
<path d="M0 0 C3.73476717 1.24492239 4.3447038 2.58428223 6.5 5.8125 C9.02268572 9.56852605 9.02268572 9.56852605 11.71875 13.19921875 C13 15 13 15 13 17 C10.61129656 18.60358391 8.22094487 20.09549809 5.75 21.5625 C-1.51979269 25.99004033 -8.3017752 30.73573424 -15 36 C-15.8146875 36.63292969 -16.629375 37.26585937 -17.46875 37.91796875 C-20.00538729 39.91515882 -22.50759161 41.94785645 -25 44 C-25.51256348 44.42087891 -26.02512695 44.84175781 -26.55322266 45.27539062 C-36.27531647 53.30106949 -45.20079189 61.97896312 -54 71 C-55 68 -55 68 -54.27832031 66.15332031 C-53.88225586 65.46850586 -53.48619141 64.78369141 -53.078125 64.078125 C-52.6354126 63.30750732 -52.1927002 62.53688965 -51.73657227 61.74291992 C-51.24600342 60.92025635 -50.75543457 60.09759277 -50.25 59.25 C-49.49771118 57.97443237 -49.49771118 57.97443237 -48.73022461 56.6730957 C-37.39644332 37.76220606 -23.02850376 21.0856506 -7 6 C-6.07501709 5.12214844 -6.07501709 5.12214844 -5.13134766 4.2265625 C-4.51694824 3.66710937 -3.90254883 3.10765625 -3.26953125 2.53125 C-2.71499268 2.02142578 -2.1604541 1.51160156 -1.58911133 0.98632812 C-1.06470459 0.66083984 -0.54029785 0.33535156 0 0 Z " fill="#6D6BAC" transform="translate(605,525)"/>
<path d="M0 0 C29.37 0 58.74 0 89 0 C89 4.95 89 9.9 89 15 C65.57 15 42.14 15 18 15 C18 18.63 18 22.26 18 26 C40.44 26 62.88 26 86 26 C86 30.95 86 35.9 86 41 C63.23 41 40.46 41 17 41 C17 45.29 17 49.58 17 54 C41.09 54 65.18 54 90 54 C90 58.62 90 63.24 90 68 C77.79 68 65.58 68 53 68 C53 74.6 53 81.2 53 88 C69.17 88 85.34 88 102 88 C102 88.33 102 88.66 102 89 C85.5 89 69 89 52 89 C52 81.74 52 74.48 52 67 C64.21 67 76.42 67 89 67 C89 63.04 89 59.08 89 55 C64.91 55 40.82 55 16 55 C16 49.72 16 44.44 16 39 C38.77 39 61.54 39 85 39 C85 35.37 85 31.74 85 28 C62.23 28 39.46 28 16 28 C16 23.05 16 18.1 16 13 C39.76 13 63.52 13 88 13 C88 9.04 88 5.08 88 1 C59.29 1 30.58 1 1 1 C1 22.78 1 44.56 1 67 C12.88 67 24.76 67 37 67 C37 74.26 37 81.52 37 89 C20.5 89 4 89 -13 89 C-13 88.67 -13 88.34 -13 88 C3.17 88 19.34 88 36 88 C36 81.73 36 75.46 36 69 C33.48503906 69.01160156 30.97007812 69.02320313 28.37890625 69.03515625 C25.9530449 69.04294673 23.52718493 69.04902354 21.10131836 69.05493164 C19.41055684 69.0599719 17.71979971 69.06680405 16.02905273 69.07543945 C13.60399293 69.08751857 11.17899056 69.09323123 8.75390625 69.09765625 C7.61327477 69.10539818 7.61327477 69.10539818 6.44960022 69.11329651 C4.6326743 69.11349238 2.81586873 69.06197277 1 69 C0 68 0 68 -0.12025452 65.29820251 C-0.11803391 64.09241043 -0.11581329 62.88661835 -0.11352539 61.64428711 C-0.11364593 60.97013795 -0.11376646 60.29598879 -0.11389065 59.60141087 C-0.11314174 57.41002209 -0.10551454 55.2187174 -0.09765625 53.02734375 C-0.09618676 51.678101 -0.09516609 50.32885769 -0.09460449 48.97961426 C-0.0893524 43.9655675 -0.0753913 38.95153293 -0.0625 33.9375 C-0.041875 22.738125 -0.02125 11.53875 0 0 Z " fill="#1A122B" transform="translate(418,704)"/>
<path d="M0 0 C3.96 0 7.92 0 12 0 C12 8.91 12 17.82 12 27 C17.94 27 23.88 27 30 27 C30 29.97 30 32.94 30 36 C24.06 36 18.12 36 12 36 C12 45.57 12 55.14 12 65 C8.04 65 4.08 65 0 65 C0 43.55 0 22.1 0 0 Z " fill="#B66CD7" transform="translate(639,696)"/>
<path d="M0 0 C5.28 0 10.56 0 16 0 C16 8.91 16 17.82 16 27 C21.94 27 27.88 27 34 27 C34 31.29 34 35.58 34 40 C28.06 40 22.12 40 16 40 C16 60.79 16 81.58 16 103 C-5.78 103 -27.56 103 -50 103 C-50 105.97 -50 108.94 -50 112 C-26.57 112 -3.14 112 21 112 C21 116.29 21 120.58 21 125 C20.67 125 20.34 125 20 125 C20 121.04 20 117.08 20 113 C-3.43 113 -26.86 113 -51 113 C-51 109.37 -51 105.74 -51 102 C-29.22 102 -7.44 102 15 102 C15 91.44 15 80.88 15 70 C-11.4 70 -37.8 70 -65 70 C-65 73.96 -65 77.92 -65 82 C-42.89 82 -20.78 82 2 82 C2 84.97 2 87.94 2 91 C-20.11 91 -42.22 91 -65 91 C-65 102.22 -65 113.44 -65 125 C-65.33 125 -65.66 125 -66 125 C-66 113.45 -66 101.9 -66 90 C-44.22 90 -22.44 90 0 90 C0 87.69 0 85.38 0 83 C-21.78 83 -43.56 83 -66 83 C-66 78.38 -66 73.76 -66 69 C-44.22 69 -22.44 69 0 69 C0 46.23 0 23.46 0 0 Z M2 1 C2 22.45 2 43.9 2 66 C5.96 66 9.92 66 14 66 C14 56.43 14 46.86 14 37 C19.94 37 25.88 37 32 37 C32 34.03 32 31.06 32 28 C26.06 28 20.12 28 14 28 C14 19.09 14 10.18 14 1 C10.04 1 6.08 1 2 1 Z " fill="#221737" transform="translate(637,695)"/>
<path d="M0 0 C0.66 0 1.32 0 2 0 C2 8.25 2 16.5 2 25 C-0.31 25.99 -2.62 26.98 -5 28 C-7.27980914 29.59559271 -9.41583364 31.18419693 -11.5625 32.9375 C-12.1618335 33.41840088 -12.76116699 33.89930176 -13.37866211 34.39477539 C-26.45785418 44.95880385 -39.17275571 56.04254751 -51 68 C-50.125 63.25 -50.125 63.25 -49 61 C-48.34 61 -47.68 61 -47 61 C-46.88785156 59.99259766 -46.88785156 59.99259766 -46.7734375 58.96484375 C-45.75227921 55.05040364 -43.78070635 51.93611724 -41.625 48.5625 C-41.18164307 47.86237793 -40.73828613 47.16225586 -40.28149414 46.44091797 C-33.75938914 36.32383508 -26.20137821 27.08377813 -18.05078125 18.23828125 C-16.12555454 16.13703381 -14.27921697 13.98680694 -12.4375 11.8125 C-8.95869811 7.8041381 -5.05366616 4.41101177 -1 1 C-0.67 0.67 -0.34 0.34 0 0 Z " fill="#88A2D9" transform="translate(577,422)"/>
<path d="M0 0 C0.433125 1.216875 0.86625 2.43375 1.3125 3.6875 C2.27075193 6.2793433 3.20628883 8.32853406 4.6875 10.6875 C6.27511386 13.48472442 6.46035707 14.82545434 6 18 C4.05078125 19.88671875 4.05078125 19.88671875 1.3125 21.6875 C0.30445313 22.37714844 -0.70359375 23.06679688 -1.7421875 23.77734375 C-2.81726563 24.51082031 -3.89234375 25.24429688 -5 26 C-17.3828111 35.15586906 -29.12335461 45.07182484 -40.26977539 55.69897461 C-43.78503384 59 -43.78503384 59 -46 59 C-44.73778887 52.32615311 -42.29476149 47.73249995 -38.4375 42.1875 C-37.63058716 41.00510742 -37.63058716 41.00510742 -36.80737305 39.79882812 C-32.51557482 33.58078974 -27.98243769 27.68508916 -23 22 C-22.29617188 21.18660156 -21.59234375 20.37320313 -20.8671875 19.53515625 C-16.57976512 14.67146743 -12.11261272 9.99189586 -7.5625 5.375 C-6.78169067 4.57461304 -6.78169067 4.57461304 -5.98510742 3.75805664 C-2.23570278 0 -2.23570278 0 0 0 Z " fill="#6C6AA9" transform="translate(592,496)"/>
<path d="M0 0 C0.99 0.33 1.98 0.66 3 1 C3.53293837 3.39370625 4.0515817 5.78908438 4.5625 8.1875 C4.71396484 8.86103516 4.86542969 9.53457031 5.02148438 10.22851562 C6.54310027 17.48273096 6.54310027 17.48273096 5 21 C2.34375 22.50390625 2.34375 22.50390625 -1 24 C-3.22424839 25.60487229 -5.36720479 27.22100884 -7.5 28.9375 C-8.10166992 29.41767578 -8.70333984 29.89785156 -9.32324219 30.39257812 C-11.22354937 31.91874691 -13.11345446 33.45686015 -15 35 C-15.61037109 35.49773926 -16.22074219 35.99547852 -16.84960938 36.50830078 C-24.10438318 42.46258057 -30.61734339 48.56799856 -36.80078125 55.640625 C-39.61371977 58.6584134 -42.52043545 60.80636148 -46 63 C-45.45227111 57.92105936 -43.02029916 54.16047704 -40.4375 49.875 C-39.98785889 49.12089844 -39.53821777 48.36679687 -39.07495117 47.58984375 C-35.37872995 41.46762987 -31.36638192 35.66524237 -27 30 C-26.45085938 29.25878906 -25.90171875 28.51757812 -25.3359375 27.75390625 C-17.79970717 17.73536309 -8.94940566 8.75052997 0 0 Z " fill="#87A1D8" transform="translate(580,462)"/>
<path d="M0 0 C19.47 0 38.94 0 59 0 C59 3.96 59 7.92 59 12 C44.15 12 29.3 12 14 12 C14 15.3 14 18.6 14 22 C28.19 22 42.38 22 57 22 C57 25.96 57 29.92 57 34 C42.81 34 28.62 34 14 34 C14 37.63 14 41.26 14 45 C31.71609784 44.47323027 49.34023681 43.51256169 67 42 C67.96070434 44.88211302 68.10581883 46.69850044 68.0625 49.6875 C68.05347656 50.49574219 68.04445313 51.30398438 68.03515625 52.13671875 C68.02355469 52.75160156 68.01195312 53.36648438 68 54 C55.56572471 57.44673192 41.47927053 56.15406159 28.71191406 56.13037109 C25.21675405 56.12494842 21.72171891 56.13037457 18.2265625 56.13671875 C16.01041638 56.13605905 13.79427034 56.13478014 11.578125 56.1328125 C10.53037903 56.13483673 9.48263306 56.13686096 8.40313721 56.13894653 C7.44413513 56.13579437 6.48513306 56.13264221 5.49707031 56.12939453 C4.22685028 56.12820114 4.22685028 56.12820114 2.93096924 56.12698364 C1 56 1 56 0 55 C-0.0935919 53.28134591 -0.11744611 51.55884256 -0.11352539 49.83764648 C-0.11340454 48.72111694 -0.11328369 47.6045874 -0.11315918 46.45422363 C-0.10804321 45.27179077 -0.10292725 44.08935791 -0.09765625 42.87109375 C-0.09664917 41.79089966 -0.09564209 40.71070557 -0.09460449 39.59777832 C-0.08935374 35.54434149 -0.07539263 31.49091973 -0.0625 27.4375 C-0.041875 18.383125 -0.02125 9.32875 0 0 Z M2 2 C2 19.49 2 36.98 2 55 C34.1671595 56.1176094 34.1671595 56.1176094 66 52 C66 49.03 66 46.06 66 43 C64.42605469 43.19916016 64.42605469 43.19916016 62.8203125 43.40234375 C45.92768886 45.37850428 28.98677211 45.62558159 12 46 C12 41.38 12 36.76 12 32 C26.19 32 40.38 32 55 32 C55 29.36 55 26.72 55 24 C41.14 24 27.28 24 13 24 C13 19.38 13 14.76 13 10 C27.52 10 42.04 10 57 10 C57 7.36 57 4.72 57 2 C38.85 2 20.7 2 2 2 Z " fill="#5F3B83" transform="translate(560,701)"/>
<path d="M0 0 C5.61 0 11.22 0 17 0 C17 7.59 17 15.18 17 23 C34.49 23 51.98 23 70 23 C70 27.62 70 32.24 70 37 C32.05 37 -5.9 37 -45 37 C-45 32.38 -45 27.76 -45 23 C-30.15 23 -15.3 23 0 23 C0 15.41 0 7.82 0 0 Z M2 2 C2 9.59 2 17.18 2 25 C-12.85 25 -27.7 25 -43 25 C-43 28.3 -43 31.6 -43 35 C-6.37 35 30.26 35 68 35 C68 31.7 68 28.4 68 25 C50.18 25 32.36 25 14 25 C14 17.41 14 9.82 14 2 C10.04 2 6.08 2 2 2 Z " fill="#362350" transform="translate(804,728)"/>
<path d="M0 0 C32.01 0 64.02 0 97 0 C97 4.62 97 9.24 97 14 C83.47 14 69.94 14 56 14 C56.495 17.96 56.495 17.96 57 22 C56.34 21.34 55.68 20.68 55 20 C55 17.36 55 14.72 55 12 C68.2 12 81.4 12 95 12 C95 8.7 95 5.4 95 2 C64.31 2 33.62 2 2 2 C2 5.3 2 8.6 2 12 C15.2 12 28.4 12 42 12 C42 21.04379562 42 21.04379562 40.125 24.9375 C39.60292969 26.06478516 39.60292969 26.06478516 39.0703125 27.21484375 C38 29 38 29 36 30 C36.33 28.35 36.66 26.7 37 25 C37.66 25 38.32 25 39 25 C39.33 21.37 39.66 17.74 40 14 C26.8 14 13.6 14 0 14 C0 9.38 0 4.76 0 0 Z " fill="#3E285C" transform="translate(917,705)"/>
<path d="M0 0 C28.71 0 57.42 0 87 0 C87 40 87 40 84 46 C79.1666528 46.08333357 74.76307437 45.95261487 70 45 C70.06058594 44.44957031 70.12117187 43.89914062 70.18359375 43.33203125 C71.20384781 33.20797173 71.51326181 23.22150207 72 13 C48.24 13 24.48 13 0 13 C0 8.71 0 4.42 0 0 Z M2 1 C2 4.3 2 7.6 2 11 C25.76 11 49.52 11 74 11 C73 28 73 28 72 35 C71.94068524 36.47812375 71.91155113 37.95841423 71.9375 39.4375 C71.958125 40.613125 71.97875 41.78875 72 43 C74.40545638 44.20272819 75.94996953 44.10071472 78.625 44.0625 C79.44226563 44.05347656 80.25953125 44.04445313 81.1015625 44.03515625 C81.72804688 44.02355469 82.35453125 44.01195312 83 44 C84.60420683 38.26137393 85.38526093 32.9435312 85.625 27 C85.66367187 26.26394531 85.70234375 25.52789063 85.7421875 24.76953125 C86.11435689 16.83434813 86 8.96438393 86 1 C58.28 1 30.56 1 2 1 Z " fill="#56377A" transform="translate(772,701)"/>
<path d="M0 0 C0.33 0 0.66 0 1 0 C1 9.57 1 19.14 1 29 C17.5 29 34 29 51 29 C51 32.96 51 36.92 51 41 C13.38 41 -24.24 41 -63 41 C-63 37.04 -63 33.08 -63 29 C-46.17 29 -29.34 29 -12 29 C-12 29.33 -12 29.66 -12 30 C-28.17 30 -44.34 30 -61 30 C-61 32.97 -61 35.94 -61 39 C-24.37 39 12.26 39 50 39 C50 36.03 50 33.06 50 30 C33.5 30 17 30 0 30 C0 20.1 0 10.2 0 0 Z " fill="#6A428F" transform="translate(971,764)"/>
<path d="M0 0 C4.95 0 9.9 0 15 0 C15 8.91 15 17.82 15 27 C20.94 27 26.88 27 33 27 C33 31.29 33 35.58 33 40 C27.06 40 21.12 40 15 40 C15 49.24 15 58.48 15 68 C10.05 68 5.1 68 0 68 C0 45.56 0 23.12 0 0 Z M1 1 C1 22.45 1 43.9 1 66 C4.96 66 8.92 66 13 66 C13 56.43 13 46.86 13 37 C18.94 37 24.88 37 31 37 C31 34.03 31 31.06 31 28 C25.06 28 19.12 28 13 28 C13 19.09 13 10.18 13 1 C9.04 1 5.08 1 1 1 Z " fill="#4B306B" transform="translate(638,695)"/>
<path d="M0 0 C0.99 0.33 1.98 0.66 3 1 C-29.33333333 33.33333333 -61.66666667 65.66666667 -94 98 C-94.66 97.67 -95.32 97.34 -96 97 C-85.86444148 85.73824171 -75.18017101 75.05069293 -64.453125 64.35546875 C-62.58675526 62.49096812 -60.72060917 60.62624359 -58.85467529 58.76130676 C-54.47967665 54.38938792 -50.10214077 50.02001914 -45.72363353 45.65161449 C-40.72989802 40.66914562 -35.73907987 35.68375871 -30.74847651 30.6981529 C-20.50217418 20.46223887 -10.25230456 10.22990215 0 0 Z " fill="#2D1D4B" transform="translate(719,232)"/>
<path d="M0 0 C18.81 0 37.62 0 57 0 C57 3.3 57 6.6 57 10 C42.15 10 27.3 10 12 10 C12 9.67 12 9.34 12 9 C26.52 9 41.04 9 56 9 C56 6.36 56 3.72 56 1 C37.85 1 19.7 1 1 1 C1 18.49 1 35.98 1 54 C22.43718161 53.53732702 43.64968566 52.97404163 65 51 C65 48.03 65 45.06 65 42 C63.515 41.505 63.515 41.505 62 41 C63.32 41 64.64 41 66 41 C66.96070434 43.88211302 67.10581883 45.69850044 67.0625 48.6875 C67.05347656 49.49574219 67.04445313 50.30398438 67.03515625 51.13671875 C67.02355469 51.75160156 67.01195312 52.36648438 67 53 C53.50928231 56.73706808 38.02129098 55.11303889 24.1875 55.0625 C16.205625 55.041875 8.22375 55.02125 0 55 C0 36.85 0 18.7 0 0 Z " fill="#9359B7" transform="translate(561,702)"/>
<path d="M0 0 C19.8 0 39.6 0 60 0 C60 0.33 60 0.66 60 1 C40.53 1 21.06 1 1 1 C1.33 19.15 1.66 37.3 2 56 C21.14 56 40.28 56 60 56 C56.58905883 57.70547058 55.48946371 58.25348589 51.9921875 58.4140625 C51.18604004 58.45281494 50.37989258 58.49156738 49.54931641 58.53149414 C48.66679199 58.56235107 47.78426758 58.59320801 46.875 58.625 C45.4835376 58.68192017 45.4835376 58.68192017 44.06396484 58.73999023 C29.38625553 59.25840044 14.68208547 59.05872834 0 59 C0 39.53 0 20.06 0 0 Z " fill="#221738" transform="translate(559,700)"/>
<path d="M0 0 C0.53625 0.721875 1.0725 1.44375 1.625 2.1875 C9.19367787 11.15040801 18.61754329 14.3397272 30 16 C34.04599145 16.31130897 38.06798298 16.3806291 42.125 16.375 C43.21723877 16.37483887 44.30947754 16.37467773 45.43481445 16.37451172 C54.49051244 16.24765316 62.41528218 14.86505808 71 12 C72.13050781 11.62617187 73.26101563 11.25234375 74.42578125 10.8671875 C75.27527344 10.58101562 76.12476563 10.29484375 77 10 C77 10.66 77 11.32 77 12 C75.6902013 12.61000081 74.37694391 13.21257432 73.0625 13.8125 C71.96615234 14.31716797 71.96615234 14.31716797 70.84765625 14.83203125 C69.90792969 15.21746094 68.96820312 15.60289062 68 16 C67.06244873 16.39360718 67.06244873 16.39360718 66.10595703 16.79516602 C59.63220189 19.26257982 53.62427082 19.42583215 46.75 19.3125 C45.64406494 19.3026709 44.53812988 19.2928418 43.39868164 19.28271484 C32.90775518 19.11745476 23.12669483 17.77987701 13 15 C13 14.34 13 13.68 13 13 C12.13375 12.773125 11.2675 12.54625 10.375 12.3125 C6.21539932 10.69487751 4.1259213 9.19861714 1 6 C0.125 2.6875 0.125 2.6875 0 0 Z " fill="#482F6C" transform="translate(773,802)"/>
<path d="M0 0 C0.33 0 0.66 0 1 0 C1 3.96 1 7.92 1 12 C24.76 12 48.52 12 73 12 C73 35 73 35 72 43 C77.445 43.495 77.445 43.495 83 44 C83.33 41.36 83.66 38.72 84 36 C84.33 36 84.66 36 85 36 C85.125 43.75 85.125 43.75 84 46 C79.1666528 46.08333357 74.76307437 45.95261487 70 45 C70.06058594 44.44957031 70.12117187 43.89914062 70.18359375 43.33203125 C71.20384781 33.20797173 71.51326181 23.22150207 72 13 C48.24 13 24.48 13 0 13 C0 8.71 0 4.42 0 0 Z " fill="#2B1D44" transform="translate(772,701)"/>
<path d="M0 0 C1.32 0 2.64 0 4 0 C4.96070434 2.88211302 5.10581883 4.69850044 5.0625 7.6875 C5.05347656 8.49574219 5.04445313 9.30398438 5.03515625 10.13671875 C5.02355469 10.75160156 5.01195312 11.36648438 5 12 C-8.51117956 15.74273623 -23.94936006 14.11420265 -37.8125 14.0625 C-40.16210842 14.05747566 -42.51171788 14.0529144 -44.86132812 14.04882812 C-50.57424169 14.03789493 -56.28711591 14.02123069 -62 14 C-62 13.67 -62 13.34 -62 13 C-60.95473145 12.98018066 -59.90946289 12.96036133 -58.83251953 12.93994141 C-38.15670219 12.53572692 -17.60122966 11.92029562 3 10 C3 7.03 3 4.06 3 1 C2.01 0.67 1.02 0.34 0 0 Z " fill="#6E4492" transform="translate(623,743)"/>
<path d="M0 0 C0.66 0 1.32 0 2 0 C2 8.25 2 16.5 2 25 C0.68 25.33 -0.64 25.66 -2 26 C-1.67 25.34 -1.34 24.68 -1 24 C-0.34 24 0.32 24 1 24 C0.85913398 21.39547729 0.71251536 18.79149803 0.5625 16.1875 C0.52318359 15.44951172 0.48386719 14.71152344 0.44335938 13.95117188 C0.25618965 10.76928658 0.01279207 8.03837622 -1 5 C-1.55985596 5.57032959 -2.11971191 6.14065918 -2.6965332 6.72827148 C-5.22996609 9.30321452 -7.77110513 11.87041594 -10.3125 14.4375 C-11.19357422 15.33533203 -12.07464844 16.23316406 -12.98242188 17.15820312 C-13.82998047 18.01220703 -14.67753906 18.86621094 -15.55078125 19.74609375 C-16.33106689 20.53685303 -17.11135254 21.3276123 -17.9152832 22.14233398 C-20 24 -20 24 -23 25 C-21.55774399 21.6619951 -19.74778144 19.56156534 -17.125 17.0625 C-14.90893478 14.90997787 -12.90348458 12.87633962 -11 10.4375 C-8.05641336 6.85000378 -4.52494014 4.00063555 -1 1 C-0.67 0.67 -0.34 0.34 0 0 Z " fill="#6A7EA9" transform="translate(577,422)"/>
<path d="M0 0 C5.05255964 0.63156995 9.29593201 2.13459373 14 4 C14 4.33 14 4.66 14 5 C13.0620459 4.99476318 12.1240918 4.98952637 11.15771484 4.98413086 C7.65770852 4.96702703 4.15774701 4.95451973 0.65771484 4.94506836 C-0.85336002 4.94005838 -2.36443009 4.93324856 -3.87548828 4.92456055 C-6.05502512 4.91234824 -8.23449753 4.90673822 -10.4140625 4.90234375 C-11.7232666 4.89710693 -13.0324707 4.89187012 -14.38134766 4.88647461 C-17.69443297 4.99041366 -20.74830173 5.39149506 -24 6 C-26.67810075 6.11196073 -29.31732686 6.04625299 -32 6 C-32 5.34 -32 4.68 -32 4 C-21.49392942 1.46574878 -10.74915603 1.36823456 0 1 C0 0.67 0 0.34 0 0 Z " fill="#333D52" transform="translate(673,384)"/>
<path d="M0 0 C4.3177458 0.50797009 8.03302114 1.19682779 12 3 C12 3.66 12 4.32 12 5 C10.71311279 4.99476318 9.42622559 4.98952637 8.1003418 4.98413086 C3.33130589 4.9660472 -1.43772698 4.95455563 -6.20678711 4.94506836 C-8.27189646 4.94003586 -10.33700224 4.93320931 -12.40209961 4.92456055 C-15.36833578 4.91244764 -18.33452489 4.90676089 -21.30078125 4.90234375 C-22.2258699 4.89718246 -23.15095856 4.89202118 -24.1040802 4.88670349 C-24.96474594 4.88662796 -25.82541168 4.88655243 -26.7121582 4.88647461 C-27.46938675 4.884254 -28.2266153 4.88203339 -29.00679016 4.87974548 C-31.21036247 4.92649769 -31.21036247 4.92649769 -34 6 C-35.39439664 6.06665376 -36.79169875 6.08538199 -38.1875 6.0625 C-40.0746875 6.0315625 -40.0746875 6.0315625 -42 6 C-30.69639307 -1.53573796 -9.91483185 1.807815 3 2 C2.01 1.34 1.02 0.68 0 0 Z " fill="#61739B" transform="translate(688,420)"/>
<path d="M0 0 C1.7315332 -0.01063477 1.7315332 -0.01063477 3.49804688 -0.02148438 C10.42216376 0.02957264 17.06401704 0.49754321 23.4375 3.4375 C23.9325 4.4275 23.9325 4.4275 24.4375 5.4375 C23.4165625 5.11265625 22.395625 4.7878125 21.34375 4.453125 C14.96164931 2.86321787 8.47331045 3.1480087 1.9375 3.1875 C0.65746094 3.17976562 -0.62257813 3.17203125 -1.94140625 3.1640625 C-8.55984599 3.1777511 -14.20505195 3.68474563 -20.5625 5.4375 C-22.77148438 4.99511719 -22.77148438 4.99511719 -24.5625 4.4375 C-16.24693691 0.732692 -9.04809989 -0.15713787 0 0 Z " fill="#57377B" transform="translate(815.5625,782.5625)"/>
<path d="M0 0 C1.25876953 -0.020625 2.51753906 -0.04125 3.81445312 -0.0625 C13.9475966 -0.10478751 22.38244873 1.0073293 30.5625 7.25 C29.9025 7.58 29.2425 7.91 28.5625 8.25 C27.428125 7.651875 26.29375 7.05375 25.125 6.4375 C12.47222976 -0.04592305 -4.72408075 1.0982057 -18.4375 3.25 C-21.1168948 3.35751986 -23.75382049 3.2970821 -26.4375 3.25 C-19.3402342 -1.48151054 -8.24860564 0.03368496 0 0 Z " fill="#5A387A" transform="translate(820.4375,772.75)"/>
<path d="M0 0 C6.71539173 1.29975324 12.72019113 3.29928888 19 6 C19 6.33 19 6.66 19 7 C17.52021031 6.88260541 16.04118816 6.75553868 14.5625 6.625 C13.73878906 6.55539062 12.91507813 6.48578125 12.06640625 6.4140625 C9.59496259 6.0803389 7.40050272 5.59160405 5 4.96875 C-1.14894539 3.55840022 -7.28699271 3.78470493 -13.5625 3.875 C-15.36170898 3.88853516 -15.36170898 3.88853516 -17.19726562 3.90234375 C-20.13172309 3.92572588 -23.06575234 3.9584972 -26 4 C-22.64880481 1.76586987 -21.5822245 1.76152238 -17.67578125 1.8046875 C-16.13374023 1.81435547 -16.13374023 1.81435547 -14.56054688 1.82421875 C-13.48869141 1.84097656 -12.41683594 1.85773438 -11.3125 1.875 C-10.22904297 1.88402344 -9.14558594 1.89304687 -8.02929688 1.90234375 C-5.3526429 1.9259266 -2.67643203 1.95883874 0 2 C0 1.34 0 0.68 0 0 Z " fill="#1A1C2A" transform="translate(693,455)"/>
<path d="M0 0 C1.58367747 0.14204741 3.16693318 0.28880153 4.75 0.4375 C5.63171875 0.51871094 6.5134375 0.59992188 7.421875 0.68359375 C10 1 10 1 11.88525391 1.51147461 C14.13119969 2.03030831 16.11106585 2.12936416 18.4140625 2.1328125 C19.25356445 2.13474609 20.09306641 2.13667969 20.95800781 2.13867188 C22.27816895 2.1319043 22.27816895 2.1319043 23.625 2.125 C24.96836426 2.12209961 24.96836426 2.12209961 26.33886719 2.11914062 C32.28575941 2.08020135 38.09947071 1.78673724 44 1 C40.59223789 4.40776211 36.25442668 4.12733771 31.62109375 4.28125 C30.61755859 4.31863281 29.61402344 4.35601562 28.58007812 4.39453125 C26.48112418 4.4649747 24.38216582 4.53528672 22.28320312 4.60546875 C21.28095703 4.64285156 20.27871094 4.68023437 19.24609375 4.71875 C18.33529053 4.74904297 17.4244873 4.77933594 16.48608398 4.81054688 C14.02789323 4.92496279 14.02789323 4.92496279 11.81738281 5.56176758 C9.18592728 6.19630045 7.72600604 5.31646233 5.3125 4.1875 C4.52488281 3.83042969 3.73726562 3.47335937 2.92578125 3.10546875 C1 2 1 2 0 0 Z " fill="#242B3A" transform="translate(766,457)"/>
<path d="M0 0 C0.66 0.33 1.32 0.66 2 1 C-6.91 9.91 -15.82 18.82 -25 28 C-25.66 27.67 -26.32 27.34 -27 27 C-18.57621927 17.41144959 -9.87408891 8.11869532 0 0 Z " fill="#5C5A90" transform="translate(605,525)"/>
<path d="M0 0 C2.06484978 0.42627206 4.12681821 0.86651449 6.1875 1.3125 C7.33605469 1.55613281 8.48460937 1.79976563 9.66796875 2.05078125 C12.89037104 2.96876924 15.23373307 4.14019342 18 6 C14.75315567 7.0261698 13.78544202 6.94675203 10.25390625 6.0703125 C3.26165794 4.36488608 -3.91591058 4.78853288 -11.0625 4.875 C-12.51496778 4.88505168 -13.9674423 4.89417365 -15.41992188 4.90234375 C-18.94675682 4.92417983 -22.4733342 4.95858851 -26 5 C-26 4.67 -26 4.34 -26 4 C-20.19230134 3.05196688 -14.43790813 2.69552728 -8.5625 2.4375 C-7.17901367 2.37272461 -7.17901367 2.37272461 -5.76757812 2.30664062 C-3.51183837 2.20145069 -1.25600501 2.09930893 1 2 C0.67 1.34 0.34 0.68 0 0 Z " fill="#2F2E49" transform="translate(700,490)"/>
<path d="M0 0 C19.8 0.495 19.8 0.495 40 1 C37.45043513 3.54956487 35.81210813 3.23726715 32.3359375 3.25224304 C31.56507813 3.24505753 30.79421875 3.23787201 30 3.23046875 C29.20851563 3.23001053 28.41703125 3.22955231 27.6015625 3.2290802 C25.9270681 3.22605731 24.25257652 3.2181699 22.578125 3.20581055 C20.01031569 3.18757326 17.44286726 3.18530072 14.875 3.18554688 C13.24999687 3.18063094 11.6249962 3.17480229 10 3.16796875 C8.84371094 3.16629951 8.84371094 3.16629951 7.6640625 3.16459656 C2.23213978 3.11606989 2.23213978 3.11606989 0 2 C0 1.34 0 0.68 0 0 Z " fill="#8B93A1" transform="translate(751,388)"/>
<path d="M0 0 C11.55 0.33 23.1 0.66 35 1 C35 1.33 35 1.66 35 2 C29.51730931 3.15664737 24.19660726 3.11416255 18.625 3.0625 C17.69816406 3.05798828 16.77132812 3.05347656 15.81640625 3.04882812 C13.54424272 3.03711594 11.27211273 3.01918294 9 3 C11.64 3.99 14.28 4.98 17 6 C12.33883884 7.16529029 11.11145911 6.54636782 6.8125 4.6875 C5.74644531 4.23761719 4.68039062 3.78773438 3.58203125 3.32421875 C1 2 1 2 0 0 Z " fill="#47466F" transform="translate(784,529)"/>
<path d="M0 0 C0.99 0.33 1.98 0.66 3 1 C3.33 4.63 3.66 8.26 4 12 C2.22293791 9.33440687 1.12451727 6.9719385 0 4 C-0.40839111 4.41886475 -0.81678223 4.83772949 -1.23754883 5.26928711 C-3.09060864 7.16391776 -4.9514192 9.05074912 -6.8125 10.9375 C-7.77639648 11.9265332 -7.77639648 11.9265332 -8.75976562 12.93554688 C-9.38173828 13.56396484 -10.00371094 14.19238281 -10.64453125 14.83984375 C-11.50075073 15.71177368 -11.50075073 15.71177368 -12.37426758 16.60131836 C-14 18 -14 18 -17 19 C-15.60652624 15.84795019 -13.97514921 13.73828227 -11.5234375 11.328125 C-10.51796875 10.33232422 -10.51796875 10.33232422 -9.4921875 9.31640625 C-8.79351563 8.63449219 -8.09484375 7.95257813 -7.375 7.25 C-6.66859375 6.55261719 -5.9621875 5.85523438 -5.234375 5.13671875 C-3.49401297 3.41987512 -1.74915019 1.70788168 0 0 Z " fill="#687CA7" transform="translate(580,462)"/>
<path d="M0 0 C0.66 0 1.32 0 2 0 C2.99 3.3 3.98 6.6 5 10 C5.80824219 9.79503906 6.61648438 9.59007812 7.44921875 9.37890625 C8.51785156 9.10949219 9.58648438 8.84007812 10.6875 8.5625 C11.74324219 8.29566406 12.79898438 8.02882813 13.88671875 7.75390625 C16.5828317 7.10102068 19.2757576 6.52058807 22 6 C20.625 7.5 20.625 7.5 19 9 C18.34 9 17.68 9 17 9 C17 9.66 17 10.32 17 11 C13.77679199 13.14880534 10.69393848 13.54731672 6.90234375 13.44140625 C5 13 5 13 2.5625 10.4375 C0.93918992 6.86621783 0.31165365 3.89567063 0 0 Z " fill="#442B61" transform="translate(913,758)"/>
<path d="M0 0 C0.66 0.33 1.32 0.66 2 1 C2 1.66 2 2.32 2 3 C2.66 3 3.32 3 4 3 C4.55443997 10.28164487 4.48283931 16.04783531 0.51171875 22.3515625 C-1 24 -1 24 -4.3125 25.0625 C-5.199375 25.041875 -6.08625 25.02125 -7 25 C-6.38511719 24.22076172 -6.38511719 24.22076172 -5.7578125 23.42578125 C-0.92370318 17.16919478 1.4356716 13.13253654 1 5 C0.71479595 3.32442621 0.40044304 1.65182755 0 0 Z " fill="#432B5F" transform="translate(857,787)"/>
<path d="M0 0 C0.33 1.32 0.66 2.64 1 4 C-15.98742138 19.1509434 -15.98742138 19.1509434 -22 21 C-24.2421875 20.60546875 -24.2421875 20.60546875 -26 20 C-25.0821875 19.50371094 -24.164375 19.00742187 -23.21875 18.49609375 C-14.16694137 13.5187092 -6.18829437 8.50890476 0 0 Z " fill="#583779" transform="translate(961,743)"/>
<path d="M0 0 C6.93 0.495 6.93 0.495 14 1 C14 1.66 14 2.32 14 3 C21.59 2.34 29.18 1.68 37 1 C36.67 1.66 36.34 2.32 36 3 C30.82819329 4.40682118 25.56979526 4.22162776 20.25 4.25 C19.29867187 4.270625 18.34734375 4.29125 17.3671875 4.3125 C11.02922224 4.34722858 5.86552912 3.41393284 0 1 C0 0.67 0 0.34 0 0 Z " fill="#717884" transform="translate(767,395)"/>
<path d="M0 0 C2.97 0.495 2.97 0.495 6 1 C6 1.66 6 2.32 6 3 C7.32 3.33 8.64 3.66 10 4 C10 4.33 10 4.66 10 5 C3.49015152 5.12518939 3.49015152 5.12518939 1.10449219 4.51586914 C-1.43059599 3.89444903 -3.81394329 3.78501332 -6.421875 3.68359375 C-7.95908203 3.62075195 -7.95908203 3.62075195 -9.52734375 3.55664062 C-10.59082031 3.51732422 -11.65429688 3.47800781 -12.75 3.4375 C-13.82894531 3.39431641 -14.90789063 3.35113281 -16.01953125 3.30664062 C-18.67956428 3.20071011 -21.33968812 3.09863579 -24 3 C-24 3.66 -24 4.32 -24 5 C-24.66 4.67 -25.32 4.34 -26 4 C-25.67 3.34 -25.34 2.68 -25 2 C-16.09 2 -7.18 2 2 2 C1.34 1.34 0.68 0.68 0 0 Z " fill="#838B99" transform="translate(675,351)"/>
<path d="M0 0 C0.66 0.33 1.32 0.66 2 1 C-11.77848101 17.25949367 -11.77848101 17.25949367 -17 19 C-15.60652624 15.84795019 -13.97514921 13.73828227 -11.5234375 11.328125 C-10.51796875 10.33232422 -10.51796875 10.33232422 -9.4921875 9.31640625 C-8.79351563 8.63449219 -8.09484375 7.95257813 -7.375 7.25 C-6.66859375 6.55261719 -5.9621875 5.85523438 -5.234375 5.13671875 C-3.49401297 3.41987512 -1.74915019 1.70788168 0 0 Z " fill="#A7B1C3" transform="translate(559,354)"/>
<path d="M0 0 C0.66 0.66 1.32 1.32 2 2 C-9.88 2 -21.76 2 -34 2 C-34 1.67 -34 1.34 -34 1 C-28.53457723 -0.20496541 -23.13953397 -0.38723303 -17.5625 -0.625 C-16.53833984 -0.6765625 -15.51417969 -0.728125 -14.45898438 -0.78125 C-4.51573618 -1.21888164 -4.51573618 -1.21888164 0 0 Z " fill="#151A23" transform="translate(691,421)"/>
<path d="M0 0 C0.71544983 -0.00191345 1.43089966 -0.0038269 2.16802979 -0.00579834 C3.66719926 -0.00714979 5.16638085 -0.00352664 6.66552734 0.00488281 C8.96087673 0.0156614 11.25545483 0.00492027 13.55078125 -0.0078125 C15.01302256 -0.00649196 16.47526338 -0.00393174 17.9375 0 C18.62189148 -0.00404846 19.30628296 -0.00809692 20.01141357 -0.01226807 C23.63780161 0.02357328 25.09555081 0.19390887 28.203125 2.265625 C27.17840088 2.26038818 26.15367676 2.25515137 25.09790039 2.24975586 C21.30917224 2.23170531 17.52044791 2.2201928 13.73168945 2.21069336 C12.08943036 2.20565326 10.44717577 2.19882122 8.80493164 2.19018555 C6.44937021 2.17810574 4.09386791 2.17239361 1.73828125 2.16796875 C0.99973404 2.16280746 0.26118683 2.15764618 -0.4997406 2.15232849 C-2.26585588 2.1521325 -4.03184646 2.20367781 -5.796875 2.265625 C-6.126875 2.595625 -6.456875 2.925625 -6.796875 3.265625 C-9.46746351 3.40677661 -12.12119738 3.30809607 -14.796875 3.265625 C-14.796875 2.935625 -14.796875 2.605625 -14.796875 2.265625 C-9.77893272 0.62767755 -5.29353654 -0.03168838 0 0 Z " fill="#3F4A64" transform="translate(658.796875,450.734375)"/>
<path d="M0 0 C0.680625 0.680625 1.36125 1.36125 2.0625 2.0625 C2.52140625 2.51753906 2.9803125 2.97257813 3.453125 3.44140625 C4.52086545 4.51723565 5.57210955 5.60960217 6.609375 6.71484375 C10.67501313 10.9763039 14.87179733 14.10955849 20 17 C18.33984375 17.79296875 18.33984375 17.79296875 16 18 C13.37890625 16.05078125 13.37890625 16.05078125 10.5625 13.3125 C6.52232008 9.42072995 6.52232008 9.42072995 2.15234375 5.91796875 C1.44207031 5.28503906 0.73179687 4.65210938 0 4 C0 2.68 0 1.36 0 0 Z " fill="#4A2F6A" transform="translate(969,743)"/>
<path d="M0 0 C0.33 0 0.66 0 1 0 C1.125 7.75 1.125 7.75 0 10 C-4.8333472 10.08333357 -9.23692563 9.95261487 -14 9 C-13.67 7.35 -13.34 5.7 -13 4 C-12.67 4.99 -12.34 5.98 -12 7 C-8.37 7.33 -4.74 7.66 -1 8 C-0.67 5.36 -0.34 2.72 0 0 Z " fill="#5A397D" transform="translate(856,737)"/>
<path d="M0 0 C1.32 0 2.64 0 4 0 C4.96070434 2.88211302 5.10581883 4.69850044 5.0625 7.6875 C5.05347656 8.49574219 5.04445313 9.30398438 5.03515625 10.13671875 C5.02355469 10.75160156 5.01195312 11.36648438 5 12 C2.17068148 12.80928705 -0.31084077 13.11148599 -3.25 13.0625 C-5.10625 13.0315625 -5.10625 13.0315625 -7 13 C-7 12.67 -7 12.34 -7 12 C-3.38026598 10.68373308 -0.90432869 10 3 10 C3 7.03 3 4.06 3 1 C2.01 0.67 1.02 0.34 0 0 Z " fill="#5A397D" transform="translate(623,743)"/>
<path d="M0 0 C0.66 0.33 1.32 0.66 2 1 C0.28133968 2.9684831 -1.44884125 4.9243097 -3.1875 6.875 C-3.67025391 7.43058594 -4.15300781 7.98617188 -4.65039062 8.55859375 C-7.52249465 11.75838749 -9.74502322 13.77095735 -14 15 C-9.59156563 9.70987876 -4.92440206 4.81191572 0 0 Z " fill="#9AA3B3" transform="translate(565,391)"/>
<path d="M0 0 C0.33 1.32 0.66 2.64 1 4 C8.92 4.33 16.84 4.66 25 5 C25 5.33 25 5.66 25 6 C11.635 6.495 11.635 6.495 -2 7 C-1 2 -1 2 0 0 Z " fill="#8A93A2" transform="translate(635,376)"/>
<path d="M0 0 C-0.11509661 1.41750563 -0.24253658 2.83401169 -0.375 4.25 C-0.44460938 5.03890625 -0.51421875 5.8278125 -0.5859375 6.640625 C-1.01507113 9.085877 -1.78600638 10.84836903 -3 13 C-3.33 11.68 -3.66 10.36 -4 9 C-4.99 9.33 -5.98 9.66 -7 10 C-3.11111111 0 -3.11111111 0 0 0 Z " fill="#AAB4C6" transform="translate(885,317)"/>
<path d="M0 0 C0.66 0.33 1.32 0.66 2 1 C-2.05489233 5.27083334 -5.96318503 8.92877136 -11 12 C-10.43454163 8.04179141 -9.19097652 5.3340947 -7 2 C-6.67 2.66 -6.34 3.32 -6 4 C-6.33 4.66 -6.66 5.32 -7 6 C-4.69 4.02 -2.38 2.04 0 0 Z " fill="#353454" transform="translate(553,549)"/>
<path d="M0 0 C0.66 0 1.32 0 2 0 C1.45144652 4.571279 0.58255197 8.67435795 -1 13 C-2.32 12.34 -3.64 11.68 -5 11 C-3.55049545 7.2089881 -1.84827434 3.6125362 0 0 Z " fill="#5D6E94" transform="translate(893,347)"/>
<path d="M0 0 C1.9375 0.6875 1.9375 0.6875 4 2 C4.75 4.625 4.75 4.625 5 7 C5.66 7 6.32 7 7 7 C8.5078125 8.96875 8.5078125 8.96875 10.125 11.5 C10.66382813 12.3353125 11.20265625 13.170625 11.7578125 14.03125 C12.37269531 15.00578125 12.37269531 15.00578125 13 16 C6.94516885 13.17184108 3.64925622 9.0932893 1 3 C0.67 2.01 0.34 1.02 0 0 Z " fill="#3D2655" transform="translate(974,729)"/>
<path d="M0 0 C0.33 0.66 0.66 1.32 1 2 C0.67 2.99 0.34 3.98 0 5 C0.66 5.33 1.32 5.66 2 6 C1.04882866 7.1725131 0.08882991 8.33787015 -0.875 9.5 C-1.40867187 10.1496875 -1.94234375 10.799375 -2.4921875 11.46875 C-2.98976563 11.9740625 -3.48734375 12.479375 -4 13 C-4.66 13 -5.32 13 -6 13 C-5.34215037 9.70319035 -4.10579427 7.15882078 -2.4375 4.25 C-1.98246094 3.45078125 -1.52742187 2.6515625 -1.05859375 1.828125 C-0.53458984 0.92320312 -0.53458984 0.92320312 0 0 Z " fill="#767D8A" transform="translate(524,442)"/>
<path d="M0 0 C3.63 0.33 7.26 0.66 11 1 C10.34 1.66 9.68 2.32 9 3 C11.64 3.99 14.28 4.98 17 6 C12.33883884 7.16529029 11.11145911 6.54636782 6.8125 4.6875 C5.74644531 4.23761719 4.68039062 3.78773438 3.58203125 3.32421875 C1 2 1 2 0 0 Z " fill="#26253C" transform="translate(784,529)"/>
<path d="M0 0 C0.66 0.33 1.32 0.66 2 1 C-1.63 4.3 -5.26 7.6 -9 11 C-10 8 -10 8 -9.22265625 6.17578125 C-8.1484375 4.45052083 -7.07421875 2.72526042 -6 1 C-5.67 1.66 -5.34 2.32 -5 3 C-5.33 3.66 -5.66 4.32 -6 5 C-4.02 3.35 -2.04 1.7 0 0 Z " fill="#475471" transform="translate(544,514)"/>
<path d="M0 0 C12.87 0.495 12.87 0.495 26 1 C26 1.33 26 1.66 26 2 C22.79273298 2.2276125 19.5843177 2.42860225 16.375 2.625 C15.47136719 2.68945312 14.56773437 2.75390625 13.63671875 2.8203125 C8.60433074 3.11417457 4.72809683 3.05774314 0 1 C0 0.67 0 0.34 0 0 Z " fill="#23262B" transform="translate(765,425)"/>
<path d="M0 0 C0.66 0 1.32 0 2 0 C1.8858134 1.93816735 1.75826577 3.87555099 1.625 5.8125 C1.55539062 6.89144531 1.48578125 7.97039062 1.4140625 9.08203125 C1 12 1 12 -1 15 C-1 12.03 -1 9.06 -1 6 C-1.33 6.99 -1.66 7.98 -2 9 C-2.66 9 -3.32 9 -4 9 C-2.80100302 5.9168649 -1.52299523 2.93720508 0 0 Z " fill="#505F80" transform="translate(900,384)"/>
<path d="M0 0 C5.05255964 0.63156995 9.29593201 2.13459373 14 4 C14 4.33 14 4.66 14 5 C5.42857143 5.28571429 5.42857143 5.28571429 2 3 C2 2.34 2 1.68 2 1 C1.34 0.67 0.68 0.34 0 0 Z " fill="#363C49" transform="translate(673,384)"/>
<path d="M0 0 C1.125 3.75 1.125 3.75 0 6 C-4.97093824 5.58846263 -9.44508386 5.20399168 -14 3 C-10.72814447 1.92689142 -8.57052408 2.10736898 -5.25 2.9375 C-4.45078125 3.13214844 -3.6515625 3.32679688 -2.828125 3.52734375 C-1.92320312 3.76130859 -1.92320312 3.76130859 -1 4 C-0.67 2.68 -0.34 1.36 0 0 Z " fill="#492F69" transform="translate(1014,764)"/>
<path d="M0 0 C0.66 0 1.32 0 2 0 C2 3.96 2 7.92 2 12 C1.01 11.34 0.02 10.68 -1 10 C-1.27028374 6.28359861 -1.180933 3.542799 0 0 Z " fill="#281A3C" transform="translate(771,790)"/>
<path d="M0 0 C0.33 0.66 0.66 1.32 1 2 C1.99 2.33 2.98 2.66 4 3 C1.69 5.31 -0.62 7.62 -3 10 C-4 7 -4 7 -3.22265625 5.17578125 C-2.1484375 3.45052083 -1.07421875 1.72526042 0 0 Z " fill="#4A4874" transform="translate(554,586)"/>
<path d="M0 0 C0.33 0 0.66 0 1 0 C1.28571429 8.57142857 1.28571429 8.57142857 -1 12 C-1.33 10.68 -1.66 9.36 -2 8 C-2.66 8 -3.32 8 -4 8 C-2.87548273 5.0280615 -1.77706209 2.66559313 0 0 Z " fill="#414066" transform="translate(909,419)"/>
<path d="M0 0 C0.33 0.66 0.66 1.32 1 2 C3.24446039 2.83868025 3.24446039 2.83868025 5.875 3.5 C9.15521035 4.37982318 11.12811631 5.08541088 14 7 C8.58201328 6.30834212 3.3177215 5.24200752 -2 4 C-2 3.01 -2 2.02 -2 1 C-1.34 0.67 -0.68 0.34 0 0 Z " fill="#8B94A2" transform="translate(659,344)"/>
<path d="M0 0 C4.3177458 0.50797009 8.03302114 1.19682779 12 3 C12 3.66 12 4.32 12 5 C8.7 4.67 5.4 4.34 2 4 C2.33 3.34 2.66 2.68 3 2 C2.01 1.34 1.02 0.68 0 0 Z " fill="#4B5978" transform="translate(688,420)"/>
<path d="M0 0 C2.64 0.66 5.28 1.32 8 2 C8 2.33 8 2.66 8 3 C1.4 3 -5.2 3 -12 3 C-12 2.67 -12 2.34 -12 2 C-8.04 2 -4.08 2 0 2 C0 1.34 0 0.68 0 0 Z " fill="#080809" transform="translate(664,349)"/>
<path d="M0 0 C0.66 0 1.32 0 2 0 C1.88570603 1.77155654 1.75816963 3.54226229 1.625 5.3125 C1.52058594 6.79169922 1.52058594 6.79169922 1.4140625 8.30078125 C1 11 1 11 -1 14 C-0.98839844 13.37351562 -0.97679687 12.74703125 -0.96484375 12.1015625 C-0.95582031 11.28429687 -0.94679688 10.46703125 -0.9375 9.625 C-0.92009766 8.40683594 -0.92009766 8.40683594 -0.90234375 7.1640625 C-0.85533666 4.95062858 -0.85533666 4.95062858 -2 3 C-1.34 2.01 -0.68 1.02 0 0 Z " fill="#757C89" transform="translate(876,280)"/>
<path d="M0 0 C1.32 1.32 2.64 2.64 4 4 C3.67 4.66 3.34 5.32 3 6 C1.0625 6.5625 1.0625 6.5625 -1 7 C-1.99 7.495 -1.99 7.495 -3 8 C-3 6.68 -3 5.36 -3 4 C-2.34 4 -1.68 4 -1 4 C-0.67 2.68 -0.34 1.36 0 0 Z " fill="#1A122B" transform="translate(965,739)"/>
<path d="M0 0 C5.94 0.99 5.94 0.99 12 2 C11.01 2.99 10.02 3.98 9 5 C4.89198233 3.81323934 3.10551666 3.10551666 0 0 Z " fill="#2D3047" transform="translate(772,492)"/>
<path d="M0 0 C4.3890815 0.51035831 7.33708062 1.52214277 11 4 C8.39417629 4.93065133 7.35801776 5.14917407 4.75 4.0625 C3.88375 3.5365625 3.88375 3.5365625 3 3 C3 2.34 3 1.68 3 1 C2.01 0.67 1.02 0.34 0 0 Z " fill="#414066" transform="translate(707,492)"/>
<path d="M0 0 C0.33 0 0.66 0 1 0 C1 2.64 1 5.28 1 8 C0.01 8.495 0.01 8.495 -1 9 C-1.33 8.34 -1.66 7.68 -2 7 C-2.99 7.495 -2.99 7.495 -4 8 C-2.87548273 5.0280615 -1.77706209 2.66559313 0 0 Z " fill="#424067" transform="translate(917,454)"/>
<path d="M0 0 C0.33 0.99 0.66 1.98 1 3 C1.66 3.33 2.32 3.66 3 4 C0.03 6.475 0.03 6.475 -3 9 C-2.5020163 5.26512223 -2.12508244 3.18762365 0 0 Z " fill="#8F98A7" transform="translate(514,410)"/>
<path d="M0 0 C0.66 0.33 1.32 0.66 2 1 C1.0409375 2.0209375 1.0409375 2.0209375 0.0625 3.0625 C-2.3258493 6.46408839 -2.67877153 8.90433701 -3 13 C-3.33 13 -3.66 13 -4 13 C-4.63019694 4.80743982 -4.63019694 4.80743982 -2 1.4375 C-1.34 0.963125 -0.68 0.48875 0 0 Z " fill="#100A19" transform="translate(791,788)"/>
<path d="M0 0 C0.66 0.33 1.32 0.66 2 1 C1.0479279 2.00596297 0.08812654 3.00461563 -0.875 4 C-1.40867187 4.556875 -1.94234375 5.11375 -2.4921875 5.6875 C-4 7 -4 7 -6 7 C-6 7.99 -6 8.98 -6 10 C-6.66 10 -7.32 10 -8 10 C-6.5682479 4.98886765 -4.01554307 3.05530451 0 0 Z " fill="#9258B4" transform="translate(782,780)"/>
<path d="M0 0 C0.66 0 1.32 0 2 0 C1.34 4.29 0.68 8.58 0 13 C-0.84224691 9.63101236 -1.63306139 6.44922289 -2 3 C-1.34 2.01 -0.68 1.02 0 0 Z " fill="#50555E" transform="translate(885,313)"/>
<path d="M0 0 C4.30840713 1.07710178 7.63576723 2.03947516 11 5 C7.0507432 4.44894091 3.65079826 3.61064629 0 2 C0 1.34 0 0.68 0 0 Z " fill="#513474" transform="translate(989,761)"/>
<path d="M0 0 C4.10958767 1.45044271 7.43258745 3.51110752 11 6 C9.234375 6.6796875 9.234375 6.6796875 7 7 C5.078125 5.8203125 5.078125 5.8203125 3.25 4.125 C2.63640625 3.57070313 2.0228125 3.01640625 1.390625 2.4453125 C0 1 0 1 0 0 Z " fill="#3D275C" transform="translate(978,754)"/>
<path d="M0 0 C0 0.33 0 0.66 0 1 C-5.24385089 2.7479503 -9.47322267 3.19392201 -15 3 C-15 2.67 -15 2.34 -15 2 C-9.75614911 0.2520497 -5.52677733 -0.19392201 0 0 Z " fill="#475472" transform="translate(659,451)"/>
<path d="M0 0 C3.3 0.33 6.6 0.66 10 1 C8.68 1.99 7.36 2.98 6 4 C3.3125 3.3125 3.3125 3.3125 1 2 C0.67 1.34 0.34 0.68 0 0 Z " fill="#546386" transform="translate(766,457)"/>
<path d="M0 0 C2.97 0.33 5.94 0.66 9 1 C4.82091936 3.08954032 4.19589427 3.16552619 0 2 C0 1.34 0 0.68 0 0 Z " fill="#6B727D" transform="translate(751,388)"/>
<path d="M0 0 C0.33 0.66 0.66 1.32 1 2 C0.67 2.99 0.34 3.98 0 5 C0.66 5.33 1.32 5.66 2 6 C0.02 6.99 0.02 6.99 -2 8 C-1.125 1.125 -1.125 1.125 0 0 Z " fill="#9DA6B7" transform="translate(524,442)"/>
</svg>
